<?xml version="1.0" encoding="UTF-8"?>
<svg width="1135px" height="260px" viewBox="0 0 1135 260" version="1.1" xmlns="http://www.w3.org/2000/svg" xmlns:xlink="http://www.w3.org/1999/xlink">
    <!-- Generator: Sketch 61.1 (89650) - https://sketch.com -->
    <title>thompson</title>
    <desc>Created with Sketch.</desc>
    <g id="Page-1" stroke="none" stroke-width="1" fill="none" fill-rule="evenodd">
        <g id="thompson" fill-rule="nonzero">
            <g id="Group" fill="#C28F33">
                <path d="M57.3,226.8 L30.3,226.8 L30.3,78.5 L96.2,0.6 L96.2,183.3 C96.2,183.3 95.5,210.3 72.2,218.5 L72.2,75.2 L57.2,88.9 L57.2,226.8 L57.3,226.8 Z" id="Path"></path>
                <path d="M0,245.9 L46.7,245.9 C81.3,245.9 109.3,217.9 109.3,183.3 L109.3,57.9 L175.2,123.8 L175.2,245.8 L206.6,245.8 L206.6,259.3 L152,259.3 L152,138 L135.5,123.8 L135.5,259.3 L0,259.3 L0,245.9 Z" id="Path"></path>
            </g>
            <g id="Group" transform="translate(344.000000, 36.000000)" fill="#FFFFFF">
                <path d="M80.7,26.7 C79.4,21.9 77.6,17 75.9,14.4 C73.5,10.4 72,9.4 63.9,9.4 L49,9.4 L49,81.7 C49,93.3 50.2,94.9 64.3,95.8 L64.3,100 L21.1,100 L21.1,95.8 C34.9,94.9 36.1,93.4 36.1,81.7 L36.1,9.4 L22.6,9.4 C14.4,9.4 12.1,10.3 9.5,14.7 C7.7,17.7 6.5,21.2 4.6,26.7 L0.1,26.7 C1,17.6 1.9,8.3 2.3,0 L5.7,0 C7.9,3.6 9.6,3.4 13.7,3.4 L72.5,3.4 C76.7,3.4 77.8,2.8 80.1,0 L83.7,0 C83.7,7 84.3,17.7 85,26.3 L80.7,26.7 Z" id="Path"></path>
                <path d="M193.3,7.6 C181,8.8 179.8,9.5 179.8,22 L179.8,81.6 C179.8,94.1 181.1,94.5 193.3,95.9 L193.3,100.1 C181.4,100.1 165.4,100.1 153.5,100.1 L153.5,95.9 C165.8,94.4 167,94.1 167,81.6 L167,51.9 L116.2,51.9 L116.2,81.6 C116.2,93.9 117.4,94.4 129.6,95.9 L129.6,100.1 C117.9,100.1 101.7,100.1 89.9,100.1 L89.9,95.9 C101.9,94.6 103.3,94.1 103.3,81.6 L103.3,22 C103.3,9.5 102,8.8 89.9,7.6 L89.9,3.4 L129.6,3.4 L129.6,7.6 C117.7,8.6 116.2,9.7 116.2,22 L116.2,45.6 L167,45.6 L167,22 C167,9.7 165.4,8.6 153.5,7.6 L153.5,3.4 C165.4,3.4 181.4,3.4 193.3,3.4 L193.3,7.6 Z" id="Path"></path>
                <path d="M250.2,1.3 C275.6,1.3 298.3,20.8 298.3,50.3 C298.3,82.2 276.6,102.1 249.3,102.1 C220.8,102.1 200,80.4 200,52.5 C200,26 218.8,1.3 250.2,1.3 Z M247.2,6.8 C230.6,6.8 215.4,20.8 215.4,48.5 C215.4,76.1 230.5,96.5 251.6,96.5 C269.6,96.5 283.1,83.1 283.1,54.5 C283.1,23.3 266.7,6.8 247.2,6.8 Z" id="Shape"></path>
                <path d="M388.6,100 L388.6,95.8 C400.8,94.6 401.2,93.7 401.1,77.8 L401.2,17.2 C389,44.4 369.4,86.9 364.2,99.9 L360.3,99.9 C355.3,86.4 338.5,45.5 327.2,18.7 C324.7,70.7 324.5,82.4 324.5,85.2 C324.6,93.5 328.4,94.7 338.5,95.7 L338.5,99.9 L303.3,99.9 L303.3,95.7 C311.9,94.8 315.5,93 316.7,85 C317.6,78.5 317.7,73.1 321.6,18.9 C322.2,11.2 320.7,8.7 307.6,7.5 L307.6,3.3 L333.4,3.3 L366.2,78.6 L401.4,3.3 L427.4,3.3 L427.4,7.5 C414.6,9 413,10.3 413.3,20.7 L413.9,77.7 C414.5,93.6 414.9,94.3 428,95.7 L428,99.9 L388.6,99.9 L388.6,100 Z" id="Path"></path>
                <path d="M472.4,3.4 C482.9,3.4 491.4,5.3 497.5,9.8 C503.3,14.1 507.3,21.1 507.3,30.9 C507.3,52.6 488.7,61.3 474.6,61.3 C473,61.3 471.5,61.2 470.6,61 L460.4,58.3 L460.4,81.5 C460.4,94 461.4,94.3 475.1,95.8 L475.1,100 L434.1,100 L434.1,95.8 C446.9,94.5 447.5,93.6 447.5,81.2 L447.5,22.2 C447.5,9 445.9,8.7 434.1,7.5 L434.1,3.3 L472.4,3.3 L472.4,3.4 Z M460.3,53.2 C462.1,54.1 466.1,55.1 471.1,55.1 C481.1,55.1 493.4,50.1 493.4,31.3 C493.4,15 482.7,8.4 470.2,8.4 C465.9,8.4 462.8,9.1 461.9,10.2 C460.7,11.2 460.3,13 460.3,17 L460.3,53.2 Z" id="Shape"></path>
                <path d="M565.6,26.1 C563.1,16.3 558.3,6.5 545.3,6.5 C533.7,6.5 529.3,14.7 529.3,22.5 C529.3,33.2 536.4,38.4 548.2,44.3 C559.9,50.2 573.7,57.1 573.7,73.9 C573.7,89.6 560.3,102.1 541.2,102.1 C533,102.1 524.6,99.6 518.3,97.5 C517.3,93.8 515.3,81.6 514.3,74.6 L518.9,73.4 C521.4,82.6 528,96.6 543.3,96.6 C554.6,96.6 561.1,89.6 561.1,78.9 C561.1,67.8 553.4,62.7 541.9,56.6 C532.2,51.4 517.4,44.1 517.4,27.2 C517.4,12.9 527.9,1.2 547.6,1.2 C556.4,1.2 564.8,3.4 567.9,3.7 C568.5,9 569.1,15.4 570.3,25.1 L565.6,26.1 Z" id="Path"></path>
                <path d="M632.2,1.3 C657.6,1.3 680.3,20.8 680.3,50.3 C680.3,82.2 658.6,102.1 631.3,102.1 C602.8,102.1 582,80.4 582,52.5 C582,26 600.8,1.3 632.2,1.3 Z M629.2,6.8 C612.6,6.8 597.4,20.8 597.4,48.5 C597.4,76.1 612.6,96.5 633.6,96.5 C651.6,96.5 665.100452,83.1 665.100452,54.5 C665.2,23.3 648.7,6.8 629.2,6.8 Z" id="Shape"></path>
                <path d="M789.9,7.6 C780.4,8.6 777.3,10.1 776.8,17 C776.7,21.8 776.4,28 776.4,41.8 L776.4,101.4 L770.8,101.4 L707.2,23.7 L707.2,60.8 C707.2,74.2 707.6,80.9 707.9,85.2 C708.2,92.8 711.9,95 722.6,95.9 L722.6,100.1 L686.5,100.1 L686.5,95.9 C695.7,95.2 699.3,92.9 699.9,85.7 C700.3,80.9 700.6,74.3 700.6,60.7 L700.6,22.8 C700.6,18.6 700.3,16.3 697.6,13 C694.8,9.3 691.7,8.4 684.4,7.7 L684.4,3.5 L706.7,3.5 L769.7,78.2 L769.7,41.8 C769.7,28 769.4,21.6 769,17.1 C768.6,10.4 765.1,8.3 753.3,7.6 L753.3,3.4 L790,3.4 L790,7.6 L789.9,7.6 Z" id="Path"></path>
            </g>
            <g id="Group" transform="translate(344.000000, 172.000000)" fill="#C28F33">
                <polygon id="Path" points="0.1 0.5 11.8 0.5 11.8 53.7 44.8 53.7 44.8 63.6 0.1 63.6"></polygon>
                <path d="M141.5,49 L109.9,49 L103.7,63.6 L91.6,63.6 L120,0.5 L131.5,0.5 L160,63.6 L147.7,63.6 L141.5,49 Z M137.6,39.8 L125.7,12.2 L113.9,39.8 L137.6,39.8 Z" id="Shape"></path>
                <polygon id="Path" points="303 0.5 282.1 63.6 269.7 63.6 254.1 16.9 238.2 63.6 225.7 63.6 204.8 0.5 217 0.5 232.7 48.5 249 0.5 259.8 0.5 275.8 48.8 291.9 0.5"></polygon>
                <polygon id="Path" points="442.5 10.4 442.5 29.6 473 29.6 473 39.5 442.5 39.5 442.5 63.7 430.8 63.7 430.8 0.6 476.9 0.6 476.9 10.4 442.5 10.4"></polygon>
                <polygon id="Path" points="534.2 0.5 545.9 0.5 545.9 63.6 534.2 63.6"></polygon>
                <path d="M650.3,63.7 L637.4,45.2 C636.9,45.3 636,45.3 635,45.3 L620.7,45.3 L620.7,63.7 L609,63.7 L609,0.6 L635,0.6 C640.5,0.6 645.2,1.5 649.3,3.3 C653.4,5.1 656.5,7.7 658.6,11.1 C660.8,14.5 661.8,18.5 661.8,23.1 C661.8,27.9 660.6,31.9 658.3,35.4 C656,38.8 652.7,41.4 648.3,43.1 L662.8,63.8 L650.3,63.8 L650.3,63.7 Z M646.1,13.7 C643.5,11.5 639.6,10.5 634.5,10.5 L620.8,10.5 L620.8,35.7 L634.5,35.7 C639.6,35.7 643.5,34.6 646.1,32.4 C648.7,30.2 650.1,27.1 650.1,23.1 C650,19 648.7,15.9 646.1,13.7 Z" id="Shape"></path>
                <polygon id="Path" points="778.9 63.7 778.8 21.9 758.1 56.5 752.9 56.5 732.2 22.4 732.2 63.7 721 63.7 721 0.6 730.7 0.6 755.8 42.4 780.4 0.6 790 0.6 790.1 63.7"></polygon>
            </g>
        </g>
    </g>
</svg>