<svg xmlns="http://www.w3.org/2000/svg" width="141.732" height="141.731">
  <g fill="#C28F33"><path d="M33.404 115.361h2.104v2.289h-2.104zM37.612 115.361h2.104v2.289h-2.104zM41.82 115.361h2.104v2.289H41.82zM46.028 115.361h2.104v2.289h-2.104zM29.196 115.361H31.3v2.289h-2.104zM92.317 115.361h2.104v2.289h-2.104zM100.734 115.361h2.104v2.289h-2.104zM109.15 115.361h2.104v2.289h-2.104zM50.236 115.361h2.104v2.289h-2.104zM104.942 115.361h2.104v2.289h-2.104zM58.653 115.361h2.104v2.289h-2.104zM79.693 115.361h2.104v2.289h-2.104zM71.277 115.361h2.104v2.289h-2.104zM75.485 115.361h2.104v2.289h-2.104zM96.526 115.361h2.104v2.289h-2.104zM62.861 115.361h2.104v2.289h-2.104zM67.069 115.361h2.104v2.289h-2.104zM88.109 115.361h2.104v2.289h-2.104zM83.901 115.361h2.104v2.289h-2.104zM54.445 115.361h2.104v2.289h-2.104zM72.47 54.098c-12.587 0-22.828 10.393-22.828 23.166 0 12.772 10.241 23.164 22.828 23.164 12.588 0 22.83-10.392 22.83-23.164 0-12.774-10.242-23.166-22.83-23.166zm20.074 29.534l-10.93-3.989-.617 1.691 10.936 3.991c-3.139 7.793-10.675 13.302-19.463 13.302-11.595 0-21.027-9.583-21.027-21.363 0-11.781 9.433-21.365 21.027-21.365 11.596 0 21.029 9.584 21.029 21.365 0 2.216-.335 4.355-.955 6.368z"/><path d="M80.368 89.211a3.755 3.755 0 00-2.037-.612c-.445 0-.885.078-1.307.234a3.824 3.824 0 00-2.367 2.647c-.615-.973-1.641-1.666-2.862-1.773a3.767 3.767 0 00-3.259 1.376c-.15-1.144-.789-2.21-1.848-2.831a3.762 3.762 0 00-1.903-.519c-.577 0-1.133.14-1.638.384a3.87 3.87 0 00-.485-3.378 3.792 3.792 0 00-3.121-1.646l-.039.003a3.854 3.854 0 00-1.206-6.114 3.819 3.819 0 002.236-2.558 3.88 3.88 0 00-.793-3.501c.06.003.117.016.177.016a3.777 3.777 0 002.919-1.38 3.881 3.881 0 00.743-3.497 3.751 3.751 0 001.751.444c.56 0 1.102-.122 1.612-.363a3.843 3.843 0 002.133-2.849c.696.915 1.776 1.516 3.003 1.516 2.098 0 3.805-1.728 3.805-3.851 0-2.122-1.707-3.849-3.805-3.849-1.881 0-3.437 1.392-3.74 3.209a3.8 3.8 0 00-3.013-1.513c-.559 0-1.1.122-1.608.363-1.704.807-2.531 2.742-2.039 4.521a3.763 3.763 0 00-1.76-.449 3.776 3.776 0 00-2.919 1.379c-1.208 1.463-1.146 3.572.046 4.972-.063-.003-.125-.013-.188-.013-1.72 0-3.23 1.175-3.674 2.857a3.861 3.861 0 002.112 4.487 3.861 3.861 0 00-2.315 4.231c.32 1.843 1.893 3.181 3.739 3.181l.03-.003a3.894 3.894 0 00-.326 4.812 3.795 3.795 0 003.121 1.646c.565 0 1.112-.13 1.616-.37-.525 1.682.147 3.572 1.717 4.493a3.76 3.76 0 001.901.518 3.795 3.795 0 002.918-1.388c.229 1.749 1.63 3.172 3.436 3.33.112.01.224.015.335.015 1.735 0 3.234-1.221 3.67-2.876.689 1.088 1.886 1.784 3.198 1.784.444 0 .883-.079 1.305-.234 1.765-.652 2.754-2.5 2.423-4.312a3.754 3.754 0 004.738-.526 3.888 3.888 0 00-.003-5.434c-1.437-1.458-3.949-1.46-5.392.001a3.89 3.89 0 00-1.037 3.42zm-8.291-30.3c1.105 0 2.004.918 2.004 2.048 0 1.131-.898 2.05-2.004 2.05-1.104 0-2.003-.919-2.003-2.05 0-1.13.899-2.048 2.003-2.048zm-7.592 1.886a1.95 1.95 0 01.839-.189 2.01 2.01 0 011.817 1.178c.473 1.028.036 2.253-.971 2.73-.979.459-2.206-.003-2.657-.988-.471-1.029-.034-2.255.972-2.731zm-6.1 4.971c.382-.461.94-.726 1.532-.726.475 0 .918.164 1.284.476.854.727.965 2.025.247 2.895-.684.828-1.998.947-2.815.25a2.079 2.079 0 01-.248-2.895zm-3.463 7.128a2.014 2.014 0 011.934-1.517c.174 0 .348.024.519.07 1.071.292 1.707 1.419 1.418 2.515-.279 1.063-1.392 1.731-2.449 1.445-1.073-.291-1.71-1.418-1.422-2.513zm-.17 7.952c-.195-1.116.536-2.183 1.628-2.379.117-.021.233-.031.349-.031.971 0 1.799.713 1.97 1.693.194 1.114-.536 2.18-1.63 2.374-1.09.202-2.126-.561-2.317-1.657zm5.935 7.776c-.878.621-2.173.385-2.782-.5a2.079 2.079 0 01.492-2.864 1.97 1.97 0 011.145-.367c.651 0 1.265.324 1.639.868.64.929.419 2.214-.494 2.863zm5.829 3.987c-.532.937-1.807 1.291-2.729.751-.966-.566-1.297-1.827-.737-2.811a2.007 2.007 0 011.736-1.019c.347 0 .69.094.993.271.963.567 1.294 1.827.737 2.808zm4.773 2.971c-1.103-.097-1.921-1.094-1.824-2.222.091-1.048.965-1.868 1.991-1.868.059 0 .118.002.18.008 1.103.097 1.92 1.093 1.824 2.219-.096 1.109-1.076 1.944-2.171 1.863zm7.726-1.207c-1.017.376-2.197-.196-2.565-1.221-.38-1.066.158-2.248 1.199-2.633.221-.082.451-.123.683-.123.838 0 1.595.54 1.884 1.345.381 1.066-.158 2.246-1.201 2.632zm3.673-7.318a1.975 1.975 0 012.828 0c.789.802.79 2.105.001 2.907-.756.77-2.07.769-2.826.001a2.084 2.084 0 01-.003-2.908zM12.984 64.347l-1.516-2.838 1.778-.95 1.515 2.838zM16.544 62.452l-1.512-2.842 1.78-.946 1.511 2.842zM23.666 58.671l-1.502-2.846 1.784-.942 1.502 2.846zM20.098 60.559l-1.506-2.844 1.783-.944 1.506 2.843zM7.907 63.416l1.526 2.834 1.774-.953-1.519-2.836zM34.37 53.043l-1.492-2.851 1.789-.936 1.492 2.851zM30.802 54.916l-1.496-2.849 1.788-.939 1.496 2.85zM27.235 56.795l-1.5-2.848 1.782-.94 1.5 2.849z"/><path d="M134.457 38.654l-.289-.549-.566-.255c-18.465-8.304-38.631-12.609-59.962-12.805v-.011l-2.085.002-.348-.002-.333.004c-21.852.015-42.498 4.325-61.367 12.812l-.567.255-.289.549c-3.74 7.116-6.004 26.318-5.237 28.659.739 2.256 1.877 4.271 3.18 6.485l.56.896H8.18c2.097 0 34.244-16.289 35.463-17.969l.561-.804-.287-.874c-.506-1.541-1.774-3.824-2.794-5.659a78.647 78.647 0 01-.854-1.56c.563-1.393 1.343-1.84 3.011-1.847h.44l1.187.001c-.073 1.03-.161 2.333-.267 3.86-.721 10.562-2.222 32.54-3.408 38.256-.94 4.536-2.988 7.031-6.258 7.63-3.298.601-5.537 3.417-6.024 7.619l-.146.189c-.129.168-.322.423-.332.447-1.986.874-3.094 2.512-3.12 4.612a410.967 410.967 0 00-.003 10.3c.033 2.306 1.135 4.014 3.13 4.842 1.339 3.7 3.056 5.579 5.105 5.588 2.137.01 4.274.013 6.411.015 2.134.003 4.267.005 6.413.015 2.586 0 3.612-3.067 4.291-5.098.066-.197.127-.379.154-.473 2.581-.042 12.031-.061 20.704-.061 8.662 0 18.096.019 20.698.061.049.142.102.299.157.467.68 2.032 1.706 5.104 4.294 5.104h.013c2.133-.01 4.267-.012 6.399-.015 2.138-.002 4.275-.005 6.411-.015 2.054-.009 3.773-1.895 5.113-5.608 1.981-.797 3.091-2.508 3.124-4.822.041-3.081.04-6.449-.004-10.3-.024-2.099-1.133-3.737-3.043-4.568-.086-.067-.279-.32-.407-.488l-.148-.193c-.462-4.169-2.707-7.014-6.021-7.617-3.271-.599-5.319-3.094-6.26-7.631-1.189-5.726-2.691-27.737-3.413-38.314-.103-1.503-.19-2.784-.262-3.801l1.18-.001h.441c1.665.007 2.445.452 3.01 1.848-.218.415-.56 1.031-.853 1.558-1.021 1.835-2.29 4.119-2.794 5.659l-.267.933.539.744c1.214 1.679 33.361 17.97 35.462 17.971l1.066-.011.522-.889c1.303-2.216 2.44-4.232 3.177-6.481.77-2.341-1.494-21.543-5.234-28.66zm-20.293 69.985c.028 2.424.036 4.637.03 6.723h-.836v2.289h.821c-.004.398-.007.808-.012 1.196-.016 1.102-.441 1.362-.877 1.536-.691.276-1.626.958-1.982 1.972-.77 2.181-1.57 3.184-1.881 3.373-2.104.01-4.208.012-6.313.015-2.051.002-4.101.005-6.15.014-.42-.498-.934-2.036-1.137-2.645-.081-.241-.155-.463-.226-.658-.322-.892-1.448-2.225-2.835-2.258-1.809-.048-11.956-.069-21.21-.069-9.253 0-19.4.021-21.204.069-1.396.033-2.521 1.368-2.843 2.262-.068.192-.144.416-.226.659-.202.606-.716 2.143-1.135 2.64-2.05-.009-4.101-.012-6.15-.014-2.104-.003-4.208-.005-6.313-.015-.312-.19-1.112-1.193-1.879-3.367-.354-1.017-1.291-1.701-1.986-1.979-.434-.172-.858-.433-.874-1.534-.042-3.042-.041-6.382.003-10.207.008-.595.169-1.008.968-1.359.377-.165.684-.399.949-.648h81.379c.266.249.571.482.947.647.804.353.965.765.972 1.358zm-6.667-9.368c2.421.441 2.974 3.332 3.098 4.543.022.229.069.52.174.819h-78.42c.1-.287.146-.566.171-.808.125-1.223.678-4.113 3.101-4.555 4.808-.879 7.882-4.392 9.137-10.439 1.236-5.957 2.692-27.284 3.475-38.742.105-1.547.196-2.876.27-3.911h.346c1.82-.011 3.641-.03 5.462-.053.075.977.143 1.901.11 2.804-.016.441-.062 1.782.876 2.753.913.945 2.188.949 2.614.949h.005l.264-.005c.895-.031 6.396-.053 13.38-.053s12.485.021 13.378.053l.266.005c.421 0 1.702 0 2.619-.949.938-.971.892-2.313.876-2.753-.031-.902.036-1.827.11-2.804 1.821.022 3.643.042 5.468.053h.34l.265 3.852c.783 11.475 2.241 32.834 3.479 38.801 1.252 6.048 4.327 9.561 9.136 10.44zm-49.59-53.267l13.315.021 13.985-.021c-.074.981-.145 1.99-.11 3.025l-.035-.001c-1.093-.038-7.57-.056-13.505-.056-5.936 0-12.413.018-13.507.056l-.033.001c.035-1.036-.035-2.044-.11-3.025zm76.241 24.699c-5.481-2.334-26.247-12.838-31.052-15.709.556-1.192 1.385-2.683 2.037-3.856l.009-.017.093.049 1.49-2.852-.178-.094c.063-.316.034-.578-.067-.892-1.043-3.317-3.214-4.937-6.636-4.95l-.456-.001c-1.323 0-5.065.007-10.039.016l-17.463.028-18.685-.029c-4.695-.009-8.209-.015-9.482-.015l-.455.001c-3.422.014-5.592 1.633-6.635 4.943-.105.328-.136.597-.063.932l-.114.06 1.49 2.852.038-.021c.652 1.174 1.477 2.658 2.03 3.846-4.807 2.871-25.57 13.374-31.053 15.709-.642-1.126-1.214-2.207-1.669-3.295l.372-.202-.813-1.502c.027-3.558 1.668-18.368 4.72-24.832 18.017-8.002 37.697-12.115 58.519-12.23l2.033-.003c21.155 0 41.143 4.115 59.42 12.233 3.092 6.55 4.734 21.667 4.72 24.964l-.742 1.37.313.17c-.456 1.098-1.033 2.189-1.682 3.327z"/><path d="M112.374 54.914l-1.789-.94 1.497-2.849 1.788.94zM130.196 64.349l-1.778-.949 1.513-2.838 1.778.948zM126.642 62.445l-1.779-.946 1.512-2.842 1.779.946zM131.974 65.298l1.772.952 1.525-2.834-1.782-.956zM115.95 56.798l-1.783-.939 1.499-2.848 1.783.938zM108.806 53.033l-1.789-.938 1.495-2.85 1.788.938zM123.082 60.56l-1.783-.944 1.506-2.844 1.783.945zM119.522 58.67l-1.784-.94 1.502-2.846 1.783.94zM32.282 130.806h15.402v1.609H32.282zM95.35 130.806h15.402v1.609H95.35z"/></g>
</svg>
