<svg xmlns="http://www.w3.org/2000/svg" width="141.732" height="141.731">
  <g fill="#E3B23C"><path d="M64.407 49.335c-6.798 0-10.747-2.971-10.99-3.16a.675.675 0 11.827-1.069c.084.063 8.567 6.387 22.096-.075 5.955-2.843 10.277-3.461 12.85-1.834 2.188 1.383 2.207 3.833 2.207 3.937a.677.677 0 01-.677.675h-.002a.678.678 0 01-.675-.679c0-.07-.032-1.825-1.592-2.8-1.485-.926-4.689-1.345-11.528 1.922-4.837 2.31-9.047 3.083-12.516 3.083zM92.116 17.315a56.6 56.6 0 00-2.812-1.114l-.928 2.541c.892.326 1.791.683 2.675 1.062l1.065-2.489zM86.435 15.243a53.77 53.77 0 00-2.921-.796l-.639 2.629c.93.226 1.862.48 2.774.757l.786-2.59zM97.535 19.993a58.37 58.37 0 00-2.672-1.41l-1.199 2.426c.844.417 1.701.869 2.547 1.344l1.324-2.36zM107.384 26.953a60.676 60.676 0 00-2.325-1.923l-1.672 2.127a58.707 58.707 0 012.222 1.837l1.775-2.041zM111.741 31.118a62.096 62.096 0 00-2.129-2.134l-1.869 1.955c.689.66 1.375 1.348 2.037 2.044l1.961-1.865zM102.638 23.225a60.95 60.95 0 00-2.509-1.681l-1.447 2.287a56.732 56.732 0 012.394 1.603l1.562-2.209zM74.543 13.064a53.537 53.537 0 00-3.025-.119l-.029 2.705c.954.011 1.92.049 2.871.113l.183-2.699zM113.563 37.348l2.123-1.676a65.292 65.292 0 00-1.92-2.321l-2.045 1.771a64.908 64.908 0 011.842 2.226zM80.549 13.814a53.862 53.862 0 00-2.992-.46l-.334 2.686c.934.116 1.89.263 2.842.437l.484-2.663zM41.699 24.781l-1.516-2.24a58.911 58.911 0 00-2.457 1.756l1.629 2.16a57.382 57.382 0 012.344-1.676zM46.629 21.801l-1.275-2.387c-.88.47-1.764.974-2.627 1.496l1.4 2.314a54.692 54.692 0 012.502-1.423zM37.097 28.249l-1.738-2.074a63.668 63.668 0 00-2.265 1.988l1.832 1.99a63.353 63.353 0 012.171-1.904zM32.85 32.159l-1.926-1.9a67.643 67.643 0 00-2.066 2.192l2.012 1.811a63.226 63.226 0 011.98-2.103zM68.613 15.699l-.123-2.703a53.855 53.855 0 00-3.019.223l.275 2.691a51.202 51.202 0 012.867-.211zM57.284 17.514l-.725-2.607c-.962.268-1.935.568-2.893.894l.871 2.563a50.352 50.352 0 012.747-.85zM51.841 19.363l-1.01-2.51c-.929.373-1.861.779-2.774 1.206l1.146 2.451a53.634 53.634 0 012.638-1.147zM62.895 16.284l-.424-2.672c-.981.155-1.982.345-2.977.563l.58 2.643a49.305 49.305 0 012.821-.534z"/><path d="M59.82 24.636c-2.098.036-2.931.944-3.259 1.711-.605 1.409.211 3.063 1.101 4.298-1.562 1.063-3.505 2.752-3.618 4.852-1.204.072-2.544.462-3.988 1.853-2.547 2.445-5.715 13.72-3.514 21.557a1.488 1.488 0 002.863-.805c-2.032-7.232 1.245-17.201 2.711-18.608 1.085-1.045 1.838-1.08 2.938-1.02l.604.034.456-.397c.172-.149.346-.292.519-.435l.833-.683-.389-1.004c-.321-.827 1.013-2.21 3.567-3.698l1.624-.947-1.296-1.363c-.726-.762-1.412-1.779-1.6-2.33a3.29 3.29 0 01.592-.042l.153.001.149-.031c.124-.024 12.428-2.452 23.18 3.893l.105.057c.133.064 3.255 1.619 2.358 4.163l-.886 2.515 2.604-.568c.02-.003 2-.387 3.434.987 1.521 1.461 4.757 12.867 2.71 20.159a1.487 1.487 0 102.863.803c2.253-8.028-1.054-20.744-3.515-23.107-1.326-1.271-2.863-1.707-4.066-1.825-.062-2.909-2.536-4.969-4.146-5.771-11.183-6.578-23.514-4.545-25.087-4.249z"/><path d="M129.507 92.868c2.384 0 4.992-1.139 7.157-3.125 3.474-3.188 4.587-10.794 4.702-11.651l.204-1.55-1.559-.13s-.389-.033-1.045-.033c-2.138 0-7.504.362-11.156 3.711-.399.366-.769.754-1.112 1.154-.135-1.937-.437-3.901-.84-5.81.166.097.336.188.516.266a4.899 4.899 0 001.946.395c2.997 0 6.106-2.555 7.738-6.357 1.859-4.334-.249-11.724-.496-12.552l-.447-1.503-1.478.526c-.29.104-7.143 2.604-9.615 8.364a13.426 13.426 0 00-.698 2.097 73.933 73.933 0 00-1.846-4.648 1.49 1.49 0 00-.204-.327c2.498-2.091 2.928-6.558.858-10.843-2.11-4.367-9.281-7.722-10.093-8.09l-1.428-.648-.571 1.461c-.115.296-2.8 7.311.005 13.117 1.786 3.693 4.995 6.175 7.984 6.175.211 0 .418-.014.623-.038.018.132.049.263.104.391.418.95 1.17 2.745 1.968 5.009-.295-.256-.6-.507-.926-.745-2.733-1.998-7.417-2.418-10.864-2.418-1.126 0-1.854.049-1.854.049l-1.557.104.178 1.548c.035.315.943 7.785 6.146 11.588 2.132 1.562 4.537 2.421 6.772 2.421 2.057 0 3.756-.752 4.811-2.11.235 1.572.377 3.15.377 4.678 0 1.333-.057 2.653-.167 3.96a13.558 13.558 0 00-.382-.613c-2.688-4.03-10.248-6.363-11.102-6.616l-1.504-.445-.364 1.526c-.073.309-1.763 7.619 1.812 12.981.056.084.12.157.178.24l-.791-.813-1.063 1.153c-.058.063-.464.514-1.014 1.251-2.745-1.793-5.758-2.401-8.918-3.018-2.659-.517-5.408-1.052-8.507-2.307l-.433-.176c-1.04-.424-2.087-.851-3.128-1.3a2.666 2.666 0 01-.786-.525 2.973 2.973 0 01-.287-.316l-.068-.085a3.51 3.51 0 01-.131-.199c-.035-.053-.066-.11-.125-.213l-.067-.123a5.413 5.413 0 01-.187-.423l-.087.033-.012-.026-.692.271.171-.109.582-.271a7.789 7.789 0 01-.147-.446l-.034-.12a8.635 8.635 0 01-.152-.632l-.016-.107h-.004c-.001-.01 0-.02-.002-.029-.143-.766-.176-1.443-.1-2.056 2.129-2.066 3.955-4.556 5.395-7.339l.293-.487c1.119-1.854 2.085-3.454 2.854-5.796a1.485 1.485 0 00-.948-1.876 1.483 1.483 0 00-1.876.948c-.664 2.021-1.507 3.419-2.574 5.188l-.342.571c-1.409 2.721-3.157 5.063-5.194 6.964l-.34.316-.099.453c-.24 1.099-.238 2.274.001 3.592l.002.012c.004.019.004.036.008.055l.001.003.022.145-5.762 4.723h-.178l-.217.209c-1.498 1.453-3.271 2.221-5.128 2.221-1.858 0-3.634-.768-5.135-2.221l-.216-.209h-.171l-6.81-5.581c.133-1.053.109-2.025-.089-2.943l-.098-.455-.342-.318c-2.347-2.189-4.361-5.046-5.826-8.261l-.051-.103c-.871-1.577-1.391-2.635-1.989-4.38l-2.813.965c.66 1.923 1.251 3.134 2.171 4.803 1.568 3.428 3.623 6.385 6.112 8.8.075.616.042 1.29-.102 2.048l-.023.149a9.729 9.729 0 01-.146.605l-.057.192c-.032.11-.068.219-.107.325l-.075.211c-.05.128-.104.248-.162.365a5.59 5.59 0 01-.126.229l-.07.119a3.307 3.307 0 01-.14.209l-.032.041a2.692 2.692 0 01-.362.4 2.636 2.636 0 01-.741.483 160.07 160.07 0 01-3.049 1.267l-.509.208c-3.103 1.256-5.853 1.791-8.512 2.309-3.15.613-6.153 1.22-8.893 2.999a16.965 16.965 0 00-1-1.233l-1.063-1.153-.793.813c.059-.083.123-.158.181-.243 3.572-5.36 1.883-12.671 1.81-12.979l-.364-1.526-1.504.445c-.854.253-8.411 2.586-11.102 6.616-.134.201-.258.406-.38.612a46.733 46.733 0 01-.168-3.959c0-1.527.142-3.105.377-4.678 1.056 1.358 2.754 2.11 4.812 2.11 2.234 0 4.64-.859 6.772-2.42 5.198-3.804 6.108-11.272 6.145-11.589l.177-1.548-1.556-.104s-.728-.049-1.854-.049c-3.447 0-8.131.42-10.865 2.419-.325.238-.63.489-.925.745a72.965 72.965 0 011.85-4.738c.105.006.209.017.314.017 3.004 0 6.209-2.507 7.976-6.238 2.759-5.826.02-12.82-.099-13.115l-.582-1.456-1.423.659c-.808.374-7.954 3.783-10.028 8.169-1.043 2.202-1.465 4.56-1.188 6.64.25 1.869 1.039 3.346 2.244 4.279a74.656 74.656 0 00-1.664 4.229c-.172-.704-.4-1.409-.697-2.101-2.415-5.63-9.394-8.45-10.116-8.45H8.017L7.7 57.186c-.246.828-2.354 8.218-.494 12.552 1.631 3.803 4.74 6.357 7.737 6.357.682 0 1.336-.133 1.946-.395.18-.077.35-.17.518-.268-.404 1.908-.706 3.873-.84 5.813a13.587 13.587 0 00-1.113-1.155c-3.651-3.349-9.019-3.711-11.157-3.711-.656 0-1.045.033-1.045.033l-1.563.13.208 1.55c.115.857 1.229 8.463 4.703 11.652 2.164 1.985 4.772 3.124 7.157 3.124 1.351 0 2.52-.382 3.448-1.082.232 1.342.518 2.666.857 3.969-1.975-1.121-4.357-1.7-7.1-1.7-2.992 0-5.344.691-5.442.721l-1.503.448.528 1.478c.291.813 2.962 8.022 7.024 10.417 1.903 1.122 4.016 1.74 5.949 1.74 2.109 0 3.865-.734 4.944-2.036a48.762 48.762 0 002.198 3.623c.169.592.383 1.153.639 1.681a12.346 12.346 0 00-2.772-.331c-4.823 0-9.049 2.537-9.226 2.645l-1.34.815.886 1.295c.487.713 4.898 7.006 9.436 8.293 1.178.334 2.365.503 3.529.503 3.64 0 6.467-1.676 7.202-4.269a4.85 4.85 0 00.164-1.021c5.869 5.069 13.025 8.782 21.066 10.601a1.487 1.487 0 00.656-2.9c-8.729-1.974-16.349-6.322-22.27-12.274 2.643-1.153 4.648-4.449 4.967-8.56.252-3.24-.908-6.257-2.147-8.482 2.241-1.463 4.778-1.975 7.847-2.572 2.667-.519 5.69-1.107 9.063-2.473l.512-.208c1.033-.421 2.072-.845 3.107-1.292.494-.214.943-.51 1.353-.851l7.674 10.495 1.472-6.47c.492 1.176 1.269 2.432 2.479 3.225.147 1.004-.218 5.332-.637 10.305-.431 5.115-1.021 12.122-1.494 20.205l-.036.614.598.149c.084.021 2.091.518 4.812.518 2.846 0 4.737-.499 4.816-.521l.585-.157-.035-.604c-.471-8.071-1.061-15.071-1.49-20.183-.42-4.985-.785-9.324-.635-10.327 1.209-.795 1.984-2.052 2.477-3.229l1.473 6.474 7.281-9.956c.188.109.373.226.573.313 1.063.458 2.127.893 3.188 1.324l.435.177c3.368 1.363 6.391 1.952 9.058 2.471 3.081.6 5.627 1.113 7.874 2.592-1.234 2.224-2.387 5.232-2.137 8.463.32 4.11 2.326 7.405 4.968 8.559-5.921 5.953-13.541 10.302-22.27 12.275a1.487 1.487 0 00.656 2.9c8.04-1.818 15.197-5.531 21.067-10.601.021.342.067.683.163 1.021.735 2.593 3.563 4.269 7.203 4.269a12.94 12.94 0 003.529-.503c4.536-1.287 8.947-7.58 9.435-8.293l.886-1.295-1.34-.815c-.178-.107-4.403-2.645-9.227-2.645-.959 0-1.875.126-2.755.327.256-.527.47-1.099.641-1.704a48.171 48.171 0 002.18-3.597c1.078 1.302 2.834 2.036 4.944 2.037 1.933 0 4.046-.618 5.949-1.74 4.063-2.395 6.731-9.604 7.022-10.418l.528-1.477-1.503-.448c-.099-.029-2.45-.721-5.441-.721-2.742 0-5.125.579-7.099 1.701.339-1.304.625-2.628.857-3.97.932.7 2.1 1.081 3.451 1.082zm-2.32-6.483c.364-1.407 1.324-2.902 2.634-4.104 2.501-2.294 6.202-2.813 8.307-2.909-.529 2.577-1.665 6.521-3.473 8.181-1.599 1.467-3.523 2.342-5.147 2.342-.586 0-1.396-.122-1.931-.704-.759-.827-.57-2.113-.39-2.806zm-.432-20.639c1.334-3.107 4.49-5.101 6.379-6.061.574 2.568 1.157 6.631.192 8.88-1.284 2.991-3.49 4.556-5.006 4.556-.276 0-.537-.052-.774-.153-1.554-.666-2.26-3.796-.791-7.222zm-7.804-6.055a2.097 2.097 0 01-.921.202c-1.557 0-3.881-1.545-5.308-4.496-1.538-3.185-.927-7.049-.39-9.166 2.396 1.29 6.011 3.611 7.122 5.913 1.687 3.491 1.088 6.779-.503 7.547zm2.173 17.108c-.638.872-1.842 1.002-2.503 1.002-1.585 0-3.413-.673-5.018-1.847-2.854-2.086-4.12-5.794-4.634-7.916 4.169.003 7.476.676 9.075 1.844 2.824 2.067 4.263 5.3 3.08 6.917zM23.233 52.798c1.094-2.313 4.693-4.663 7.079-5.972.556 2.107 1.199 5.958-.322 9.171-1.41 2.978-3.728 4.536-5.288 4.536-.327 0-.631-.065-.905-.195-1.066-.504-1.392-1.825-1.491-2.567-.2-1.496.138-3.307.927-4.973zm1.987 17.085c1.599-1.169 4.905-1.842 9.075-1.845-.515 2.123-1.782 5.83-4.634 7.917-1.604 1.173-3.433 1.846-5.017 1.846-.661 0-1.866-.13-2.504-1.003-1.182-1.616.257-4.849 3.08-6.915zm-7.994.686c-.121.706-.478 1.957-1.508 2.398a1.948 1.948 0 01-.774.153c-1.516 0-3.722-1.564-5.005-4.556-.965-2.25-.383-6.313.19-8.881 1.889.957 5.045 2.948 6.38 6.061.701 1.635.962 3.393.717 4.825zM15.688 89.19c-.533.582-1.344.704-1.93.704-1.625 0-3.549-.875-5.147-2.342-1.804-1.655-2.94-5.602-3.472-8.181 2.104.098 5.806.615 8.306 2.909 1.31 1.201 2.27 2.696 2.634 4.104.179.694.367 1.98-.391 2.806zm4.658 15.498c-.449.761-1.479 1.197-2.825 1.197-1.41 0-2.987-.472-4.439-1.327-2.108-1.243-4.042-4.868-5.099-7.279a18.45 18.45 0 012.981-.25c2.275 0 4.21.46 5.749 1.366 1.562.921 2.657 2.091 3.282 3.217.143.354.297.703.447 1.054.233.785.21 1.5-.096 2.022zm1.592-8.816c-.979-.652-1.109-2.005-1.099-2.753.02-1.507.617-3.249 1.638-4.78 1.418-2.124 5.315-3.924 7.863-4.87.243 2.164.318 6.061-1.65 9.014-1.494 2.238-3.7 3.741-5.489 3.741-.488 0-.912-.119-1.263-.352zm2.578 8.461a45.636 45.636 0 01-1.217-2.555 8.04 8.04 0 00-.636-1.517 49.957 49.957 0 01-.436-1.156c.315.055.637.092.974.092 1.895 0 3.884-.888 5.622-2.404-1.541 1.889-3.556 4.752-4.307 7.54zm5.639 15.934c-.356 1.26-2.102 2.105-4.341 2.105a9.95 9.95 0 01-2.719-.391c-2.354-.667-5.142-3.68-6.775-5.743 1.441-.644 3.77-1.471 6.209-1.471.891 0 1.737.112 2.516.333 3.586 1.017 5.571 3.54 5.11 5.167zm4.481-13.575c-.298 3.857-2.454 6.376-4.23 6.258-.045-.004-.084-.018-.128-.024a45.019 45.019 0 01-2.847-3.717 10.244 10.244 0 01-.236-3.096c.196-2.544 2.716-6.017 4.477-8.088 1.267 1.776 3.238 5.148 2.964 8.667zm29.645-8.664l-5.909-8.083c.08-.113.16-.23.235-.352l.085-.144.018-.029.014-.023c.071-.124.142-.25.208-.382h-.001a8.282 8.282 0 00.264-.589l.002-.004.004-.01c.027-.071.056-.147.102-.282.051-.139.1-.288.155-.47l.011-.032h.001v-.003h-.001l.017-.053.061-.209h-.001l.006-.022 6.037 4.948-1.308 5.739zm10.198-.884c-.759.445-.75 1.313.116 11.604.418 4.969.987 11.726 1.45 19.51-.731.139-2.101.343-3.845.343-1.686 0-3.094-.208-3.851-.349.465-7.794 1.034-14.555 1.453-19.527.865-10.267.875-11.133.118-11.581-1.238-.727-1.945-2.172-2.334-3.358 2.835 1.834 6.392 1.835 9.223-.003-.387 1.185-1.093 2.633-2.33 3.361zm5.639.884l-1.306-5.738 5.101-4.181.049.138.053.14c.09.228.188.448.286.645.046.093.094.179.172.316.062.107.124.216.164.276a5.8 5.8 0 00.244.366 6.126 6.126 0 00.608.694l-5.371 7.344zm32.74 14.922a1.924 1.924 0 01-.151.006c-1.734 0-3.787-2.517-4.079-6.264-.273-3.521 1.698-6.894 2.967-8.668 1.76 2.068 4.278 5.538 4.477 8.09.087 1.12-.003 2.15-.211 3.058a45.349 45.349 0 01-2.875 3.757c-.043.006-.085.018-.128.021zm5.361 2.151a9.217 9.217 0 012.516-.333c2.44 0 4.769.828 6.21 1.471-1.634 2.063-4.421 5.076-6.774 5.743a9.95 9.95 0 01-2.719.391c-2.24 0-3.985-.846-4.342-2.105-.462-1.628 1.524-4.15 5.109-5.167zm2.36-14.78c-.037.071-.082.141-.117.212a7.893 7.893 0 00-.461 1.161 45.45 45.45 0 01-1.252 2.638c-.752-2.787-2.767-5.649-4.307-7.538 1.738 1.516 3.728 2.403 5.622 2.403.336 0 .657-.037.973-.092-.148.408-.298.814-.458 1.216zm.746-4.448c-.35.232-.773.351-1.261.351-1.789 0-3.996-1.503-5.489-3.739-1.96-2.939-1.888-6.846-1.648-9.015 2.549.947 6.443 2.746 7.859 4.869 1.021 1.531 1.619 3.273 1.639 4.78.01.748-.12 2.101-1.1 2.754zm5.227 2.522c1.539-.906 3.473-1.366 5.748-1.366 1.141 0 2.18.119 2.98.251-1.056 2.412-2.988 6.035-5.097 7.277-1.453.856-3.029 1.328-4.439 1.328-1.347 0-2.376-.437-2.824-1.198-.353-.596-.313-1.287-.158-1.881.167-.385.337-.77.493-1.16.676-1.223 1.852-2.399 3.297-3.251z"/><path d="M50.067 71.19c-.093 0-.188-.01-.283-.028-.195-.037-4.811-.994-5.921-6.58-.463-2.33-.163-4.144.891-5.391 1.272-1.507 3.078-1.494 3.285-1.494.82.023 1.467.707 1.444 1.528-.023.813-.661 1.429-1.503 1.444-.057.002-.621.027-.971.459-.415.513-.496 1.533-.23 2.873.712 3.578 3.47 4.22 3.587 4.245A1.493 1.493 0 0151.514 70a1.48 1.48 0 01-1.447 1.19zM93.41 71.19a1.487 1.487 0 01-.344-2.934c.09-.024 2.642-.745 3.658-4.367.294-1.044.265-1.846-.085-2.382-.447-.684-1.357-.851-1.366-.853a1.486 1.486 0 01-1.265-1.679 1.478 1.478 0 011.679-1.265c.229.031 2.263.365 3.441 2.17.84 1.286.994 2.905.459 4.813-1.508 5.365-5.654 6.413-5.83 6.455a1.432 1.432 0 01-.347.042z"/></g>
</svg>
