<svg xmlns="http://www.w3.org/2000/svg" width="141.732" height="141.731">
  <g fill="#C28F33"><path d="M39.616 79.382l-3.904-.873a35.603 35.603 0 00-.586 3.381l3.969.492c.125-1.003.3-2.012.521-3zM68.977 54.927l-.162-3.996c-.561.022-1.12.058-1.675.104l.34 3.986c.496-.042.995-.074 1.497-.094zM39.299 91.487l-3.945.664c.189 1.125.438 2.254.737 3.354l3.859-1.049a30.981 30.981 0 01-.651-2.969zM64.465 55.429l-.729-3.934a35.142 35.142 0 00-3.343.791l1.111 3.842a31.29 31.29 0 012.961-.699zM43.594 102.795l-3.393 2.119a35.314 35.314 0 001.958 2.82l3.17-2.439a31.688 31.688 0 01-1.735-2.5zM40.892 97.353l-3.74 1.416a34.316 34.316 0 001.375 3.148l3.582-1.779a30.38 30.38 0 01-1.217-2.785zM38.883 87.467a30.315 30.315 0 01-.013-2.054l-3.998-.096a34.306 34.306 0 00.015 2.305c.014.375.034.748.061 1.119l3.99-.277a32.049 32.049 0 01-.055-.997zM44.509 68.314l-3.277-2.293a35.781 35.781 0 00-1.829 2.904l3.484 1.965a31.944 31.944 0 011.622-2.576zM41.521 73.613l-3.658-1.619a35.262 35.262 0 00-1.234 3.204l3.799 1.254c.316-.963.684-1.918 1.093-2.839zM48.462 63.688l-2.777-2.879a36.244 36.244 0 00-2.353 2.499l3.043 2.598a31.385 31.385 0 012.087-2.218zM58.627 57.114l-1.48-3.715a34.615 34.615 0 00-3.124 1.426l1.836 3.553a31.517 31.517 0 012.768-1.264zM53.226 59.905l-2.174-3.357a35.693 35.693 0 00-2.787 2l2.486 3.135a31.953 31.953 0 012.475-1.778zM47.299 107.619l-2.92 2.732a35.56 35.56 0 002.46 2.39l2.646-3a32.18 32.18 0 01-2.186-2.122zM80.838 115.724l1.361 3.762a35.668 35.668 0 003.168-1.324l-1.723-3.611c-.909.432-1.853.828-2.806 1.173zM95.302 104.979l3.203 2.395a35.674 35.674 0 001.921-2.843l-3.42-2.076c-.523.86-1.097 1.71-1.704 2.524zM98.457 99.778l3.605 1.734a35.928 35.928 0 001.336-3.162l-3.756-1.377a30.95 30.95 0 01-1.185 2.805zM91.207 109.478l2.684 2.967a35.65 35.65 0 002.431-2.425l-2.959-2.691a31.673 31.673 0 01-2.156 2.149zM86.325 113.108l2.064 3.426a34.916 34.916 0 002.851-1.913l-2.387-3.209a31.394 31.394 0 01-2.528 1.696zM105.51 84.862l-3.996.158a31.861 31.861 0 01-.029 3.045l3.994.227a36.054 36.054 0 00.031-3.43zM49.52 114.885a36.008 36.008 0 002.874 1.874l2.021-3.451a31.98 31.98 0 01-2.552-1.665l-2.343 3.242zM100.548 94.071l3.873.998c.286-1.108.52-2.239.694-3.361l-3.951-.617a31.767 31.767 0 01-.616 2.98zM61.917 120.603c1.108.267 2.243.482 3.373.64l.553-3.961a31.465 31.465 0 01-2.988-.567l-.938 3.888zM71.42 117.559a31.75 31.75 0 01-2.545-.004l-.17 3.996a34.435 34.435 0 002.882.004l.553-.026-.221-3.994-.499.024zM74.948 117.222l.604 3.955a35.454 35.454 0 003.363-.683l-.984-3.877c-.983.249-1.987.453-2.983.605zM55.438 118.349a35.47 35.47 0 003.184 1.284l1.314-3.777a31.62 31.62 0 01-2.824-1.14l-1.674 3.633zM84.942 86.009a14.15 14.15 0 00-1.834-6.982l19.8-18.996-1.307-1.511-21.538 16.771a14.198 14.198 0 00-7.048-3.302l-.999-15.813H70.02l-1.002 15.729c-7.035.848-12.51 6.844-12.51 14.104 0 2.757.771 5.385 2.242 7.669l-3.716 3.467a2.834 2.834 0 00-.906 1.99 2.844 2.844 0 00.767 2.049c.539.575 1.3.905 2.088.905.727 0 1.417-.273 1.944-.768l4.003-3.733a13.878 13.878 0 005.731 2.233l-.015.948c-.011.639.228 1.243.672 1.703s1.042.72 1.685.73h.031a2.404 2.404 0 002.396-2.357l.015-.891c.172-.033.346-.061.52-.1 6.464-1.506 10.977-7.2 10.977-13.845zm2.59-13.998L75.407 83.644a5.2 5.2 0 00-1.129-1.312l13.254-10.321zm-9.089 4.543l-4.898 3.814-.399-6.331a12.21 12.21 0 015.297 2.517zm-7.428-4.515l.578 9.142c-.199-.023-.393-.061-.598-.061-.192 0-.375.036-.563.057l.583-9.138zm-12.506 13.97c0-6.109 4.514-11.172 10.381-12.063l-.504 7.908c-1.518.899-2.548 2.537-2.548 4.426 0 .798.197 1.544.522 2.22l-2.642 2.464c-.937-.25-1.996-.056-2.722.618l-.75.699a12.108 12.108 0 01-1.737-6.272zm5.019 8.288l-5.966 5.563a.875.875 0 01-1.205-.042.852.852 0 01-.229-.615.847.847 0 01.271-.595l5.962-5.563a.85.85 0 01.58-.228.856.856 0 01.587 1.48zm6.549-1.743a2.394 2.394 0 00-1.335 2.093l-.057 3.659a12.387 12.387 0 01-4.634-1.763l.839-.782a2.825 2.825 0 00.906-1.983c.009-.23-.02-.455-.063-.675l2.602-2.427a5.098 5.098 0 001.761.671l-.019 1.207zm1.355 8.262a.396.396 0 01-.396.387v1l-.002-1a.387.387 0 01-.275-.12.386.386 0 01-.11-.28l.095-6.124a.394.394 0 01.4-.384h.001a.387.387 0 01.384.395l-.097 6.126zm-.437-12.869a1.67 1.67 0 010-3.337c.921 0 1.67.749 1.67 1.67a1.67 1.67 0 01-1.67 1.667zm2.523 9.959l-.04.008.051-3.191a2.368 2.368 0 00-.674-1.701 2.33 2.33 0 00-.57-.421l.021-1.353c2.21-.583 3.851-2.579 3.851-4.968 0-.182-.035-.354-.054-.531l5.506-5.282a12.17 12.17 0 011.335 5.542c-.002 5.711-3.88 10.603-9.426 11.897zM70.197 137.732c-10.609 0-20.776-3.258-29.403-9.422a51.572 51.572 0 01-2.96-2.284l-1.279 1.537c.987.821 2.021 1.62 3.076 2.374 8.968 6.408 19.538 9.795 30.566 9.795 11.926 0 23.619-4.114 32.927-11.585l-1.252-1.561c-8.954 7.188-20.203 11.146-31.675 11.146z"/><path d="M79.469 36.879V34.54c2.606-.421 4.593-2.495 4.593-4.989 0-.068-.008-.135-.012-.203 2.787-3.032 4.329-6.911 4.329-10.971 0-9.149-7.744-16.594-17.263-16.594S53.854 9.228 53.854 18.377c0 4.131 1.643 8.126 4.523 11.169v.005c0 2.624 2.198 4.789 5.005 5.045v1.886C38.896 39.82 19.961 60.855 19.961 86.243c0 27.7 22.536 50.235 50.236 50.235 27.701 0 50.237-22.535 50.237-50.235.001-24.533-17.68-45-40.965-49.364zM59.284 26.782c-1.895-2.415-2.931-5.32-2.931-8.405 0-7.771 6.622-14.094 14.763-14.094s14.763 6.322 14.763 14.094c0 2.996-.998 5.877-2.823 8.271-1.006-1.312-2.672-2.173-4.557-2.173H63.94c-1.947.001-3.662.921-4.656 2.307zm1.593 2.769c0-1.42 1.374-2.575 3.063-2.575h14.559c1.688 0 3.063 1.155 3.063 2.575 0 1.418-1.374 2.571-3.063 2.571H63.94c-1.689 0-3.063-1.153-3.063-2.571zm5.005 5.071h11.087v1.854a50.432 50.432 0 00-6.771-.469c-1.455 0-2.892.076-4.315.198v-1.583zm4.315 97.856c-25.495 0-46.236-20.741-46.236-46.235s20.741-46.235 46.236-46.235 46.237 20.741 46.237 46.235-20.742 46.235-46.237 46.235z"/><path d="M70.197 42.031c-24.378 0-44.211 19.834-44.211 44.213 0 24.378 19.833 44.21 44.211 44.21s44.211-19.832 44.211-44.21c0-24.379-19.833-44.213-44.211-44.213zm0 86.423c-23.275 0-42.211-18.936-42.211-42.21 0-23.276 18.936-42.213 42.211-42.213s42.211 18.937 42.211 42.213c0 23.275-18.935 42.21-42.211 42.21z"/></g>
</svg>
