<svg xmlns="http://www.w3.org/2000/svg" width="141.732" height="141.731">
  <g fill="#C28F33"><path d="M111.58 47.865l2.041 1.856-1.855 2.04-2.04-1.855zM107.874 51.94l2.04 1.855-1.857 2.04-2.039-1.855zM119.01 39.7l2.04 1.856-1.856 2.04-2.04-1.855zM115.299 43.78l2.039 1.856-1.856 2.04-2.04-1.855z"/><path d="M129.104 21.299c-6.314 0-11.452 5.137-11.452 11.451s5.138 11.452 11.452 11.452 11.451-5.138 11.451-11.452-5.136-11.451-11.451-11.451zm0 20.327c-4.895 0-8.876-3.981-8.876-8.876 0-4.894 3.981-8.875 8.876-8.875 4.894 0 8.875 3.981 8.875 8.875 0 4.895-3.981 8.876-8.875 8.876zM116.224 114.439a9.298 9.298 0 00-5.339 1.683L91.114 96.127h8.137c1.386 0 2.417.021 2.959.043.609.388 1.564.891 3.093 1.677l11.477 5.896c.774.397 1.512.6 2.192.6.971 0 1.832-.424 2.364-1.162.455-.632.87-1.766.265-3.576l-4.282-12.814c-.592-1.773-1.092-4.85-1.092-6.718V62.747a5.664 5.664 0 00-5.657-5.656h-5.233l-1.173-1.067-.971 1.067H83.046l1.117-5.168c.179.01.356.027.538.027 5.161 0 9.359-4.198 9.359-9.358 0-5.159-4.198-9.357-9.359-9.357-5.159 0-9.357 4.198-9.357 9.357 0 4.384 3.034 8.063 7.11 9.074l-1.172 5.425h-7.857a5.663 5.663 0 00-5.656 5.656v4.618h-2.141l.352-.279-1.716-2.159-2.16 1.717.573.722h-17.07a5.664 5.664 0 00-5.657 5.657v15.686l-15.501 2.907c-1.445-4.669-5.803-8.069-10.939-8.069-6.314 0-11.452 5.137-11.452 11.451S7.196 106.45 13.51 106.45c6.313 0 11.45-5.138 11.45-11.452 0-.578-.058-1.143-.14-1.698l15.127-2.838c-.02 1.876-.508 4.862-1.089 6.602l-4.282 12.815c-.81 2.419.223 3.642.704 4.056.3.257.942.678 1.932.678.6 0 1.328-.154 2.186-.595l11.478-5.896c1.529-.786 2.485-1.289 3.094-1.677a80.643 80.643 0 012.957-.044h25.826a5.664 5.664 0 005.657-5.656v-4.616h.282l20.87 21.11a9.321 9.321 0 00-2.695 6.561c0 5.16 4.198 9.358 9.358 9.358s9.358-4.198 9.358-9.358-4.199-9.361-9.359-9.361zM77.92 42.592a6.789 6.789 0 016.781-6.781c3.74 0 6.783 3.042 6.783 6.781a6.79 6.79 0 01-6.783 6.782 6.789 6.789 0 01-6.781-6.782zm-64.411 61.281c-4.895 0-8.876-3.981-8.876-8.876 0-4.894 3.981-8.875 8.876-8.875 4.894 0 8.874 3.981 8.874 8.875 0 4.895-3.981 8.876-8.874 8.876zm58.06-41.126c0-1.023.832-1.855 1.855-1.855h37.145c1.023 0 1.856.832 1.856 1.855v17.324c0 2.279.566 5.759 1.289 7.922l3.994 11.954-10.669-5.48a61.216 61.216 0 01-2.695-1.453c-.533-.688-1.457-.688-5.094-.688H73.425a1.858 1.858 0 01-1.855-1.856V62.747zm13.038 37.996a1.858 1.858 0 01-1.856 1.855H56.925c-3.639 0-4.565 0-5.097.691-.445.261-1.391.781-2.691 1.45l-10.67 5.481 3.994-11.955c.723-2.162 1.289-5.642 1.289-7.92V73.022c0-1.023.833-1.856 1.856-1.856h22.162v5.775h-20.16v1.5h20.16v5.643h-20.16v1.5h20.16v4.886c0 .258.023.51.057.758H47.608v1.5h20.633a5.664 5.664 0 005.184 3.399h11.183v4.616zm31.617 29.837c-3.74 0-6.782-3.042-6.782-6.782s3.042-6.782 6.782-6.782 6.782 3.042 6.782 6.782-3.042 6.782-6.782 6.782zM34.813 39.485c1.71 0 3.31-.469 4.69-1.273l.29.365 2.16-1.717-.296-.373a9.314 9.314 0 002.513-6.36c0-5.161-4.198-9.359-9.357-9.359-5.16 0-9.358 4.198-9.358 9.359-.001 5.16 4.197 9.358 9.358 9.358zm0-16.141c3.739 0 6.781 3.043 6.781 6.783s-3.042 6.782-6.781 6.782c-3.74 0-6.782-3.042-6.782-6.782s3.041-6.783 6.782-6.783z"/><path d="M62.549 62.765l-2.158 1.717-1.717-2.159 2.158-1.717zM55.68 54.13l-2.16 1.717-1.716-2.16 2.16-1.716zM59.113 58.45l-2.16 1.716-1.716-2.16 2.16-1.716zM52.251 49.813l-2.158 1.716-1.718-2.159 2.159-1.717zM43.228 42.894l-1.715-2.158 2.159-1.717 1.715 2.158zM48.819 45.494L46.66 47.21l-1.717-2.16 2.158-1.716zM76.606 65.114h31.547v1.5H76.606zM76.606 72.258h31.547v1.5H76.606zM76.606 79.4h31.547v1.5H76.606zM76.606 86.298h31.547v1.5H76.606z"/></g>
</svg>
