<svg xmlns="http://www.w3.org/2000/svg" width="141.732" height="141.731">
  <g fill="#C28F33"><path d="M48.495 57.37c.505.739 1.028 1.466 1.552 2.192 1.007 1.396 1.957 2.715 2.773 4.124 1.309 2.266 2.786 4.965 3.823 7.796.389 1.069.469 2.337.555 3.68.042.665.085 1.338.164 2.008l.14 1.192h30.327l-.157-1.491c-.684-6.475 2.897-11.383 6.361-16.13 1.412-1.937 2.58-3.705 3.574-5.411 5.384-9.276 4.475-20.197-2.372-28.498C89.776 20.202 81.471 16.4 72.45 16.4a30.814 30.814 0 00-13.345 3.042c-7.128 3.445-12.546 9.866-14.492 17.175-1.863 7-.484 14.371 3.882 20.753zM71.07 75.663a9240.33 9240.33 0 01-2.84-17.57h8.487l-.276 1.779c-.32 2.071-.637 4.111-.975 6.152-.189 1.161-.393 2.32-.597 3.479-.349 1.989-.709 4.047-.997 6.091-.004.027-.009.045-.013.068H71.07zm5.135-1.727c-.106.455-.187.932-.271 1.412.271-1.839.59-3.696.906-5.498.204-1.167.409-2.333.6-3.5.339-2.046.655-4.093.978-6.171l.637-4.086H66.19v1c0 .133-.004.245-.007.344a3.74 3.74 0 00.024.679c.883 5.487 1.769 10.978 2.662 16.47l-2.868-12.303c-.102-.438-.209-.875-.316-1.313-.591-2.405-1.151-4.69-.854-7.161l1.802-.001c4.4-.001 8.952-.005 13.418.053.064.079.127.17.139.178.007 1.454-.011 2.865-.294 4.136-.767 3.457-1.602 6.962-2.409 10.352-.43 1.802-.86 3.606-1.282 5.409zM47.222 37.312c1.746-6.56 6.628-12.331 13.059-15.439a28.096 28.096 0 0112.17-2.773c8.211 0 15.757 3.444 20.703 9.449 6.11 7.409 6.923 17.152 2.121 25.426-.945 1.623-2.064 3.317-3.421 5.178-3.348 4.588-7.112 9.746-6.961 16.512H77.91c.074-.431.146-.859.242-1.27.422-1.803.851-3.604 1.279-5.405a676.55 676.55 0 002.416-10.38c.329-1.474.35-3.007.342-4.575 0-.823-.841-2.149-1.843-2.169-4.568-.062-9.214-.057-13.715-.057l-3.478.001-.158.808c-.631 3.22.069 6.072.747 8.83.105.431.211.859.312 1.289l3.013 12.928h-7.133c-.016-.225-.029-.448-.044-.672-.094-1.474-.19-2.997-.712-4.433-1.109-3.028-2.655-5.855-4.022-8.224-.885-1.526-1.92-2.963-2.921-4.351-.51-.707-1.02-1.414-1.512-2.136-5.02-7.338-4.675-14.131-3.501-18.537zM86.477 80.477c0-1.065-.824-1.933-1.836-1.933H60.256c-1.012 0-1.835.867-1.835 1.933v6.08c0 .384.11.739.295 1.04a1.988 1.988 0 00-.295 1.042v6.078c0 1.065.823 1.933 1.835 1.933h2.72v3.517c0 .949.746 1.722 1.662 1.722h15.621c.916 0 1.662-.772 1.662-1.722V96.65h2.72c1.012 0 1.836-.867 1.836-1.933v-6.078c0-.384-.11-.74-.295-1.042.185-.301.295-.656.295-1.04v-6.08zm-7.255 18.711H65.675v-1.94h13.547v1.94zM61.12 81.243h22.657v4.544H61.12v-4.544zM83.777 93.95H61.12v-4.544h22.657v4.544z"/><path d="M91.717 34.822l3.203-1.695a22.872 22.872 0 00-1.661-2.672l-2.939 2.119c.52.722.99 1.479 1.397 2.248zM91.265 28.038a24.012 24.012 0 00-2.293-2.135l-2.291 2.807a20.365 20.365 0 011.945 1.813l2.639-2.485zM93.474 39.764l3.557-.691a21.095 21.095 0 00-.836-3.055l-3.414 1.215c.293.825.527 1.677.693 2.531zM92.33 50.061l3.334 1.422c.413-.97.76-1.973 1.028-2.98l-3.5-.936a18.624 18.624 0 01-.862 2.494zM93.79 43.044c0 .646-.037 1.3-.11 1.941l3.602.408a20.98 20.98 0 00.115-3.169l-3.621.143c.008.227.013.455.014.677zM80.785 21.462a26.628 26.628 0 00-3.011-.784l-.705 3.555c.875.174 1.749.401 2.597.677l1.119-3.448zM86.428 24.083a25.079 25.079 0 00-2.744-1.483l-1.523 3.287c.809.375 1.6.803 2.352 1.271l1.915-3.075zM74.406 23.863l.291-3.611a26.885 26.885 0 00-3.108-.069l.131 3.621c.893-.031 1.79-.012 2.686.059zM50.869 98.594c-5.221-.842-9.382-6.024-12.725-10.188-1.918-2.389-3.433-4.275-4.977-5.186-1.284-.758-2.534-1.143-3.715-1.143-1.83 0-3.192.883-4.144 1.982L17.22 71.436c-.428-.903-2.549-4.963-6.15-4.963-.728 0-1.452.171-2.153.508-3.754 1.801-3.586 5.866-2.555 8.166.317.7 7.824 17.221 11.849 23.546 3.033 4.767 10.124 11.396 15.301 16.237 1.849 1.729 3.445 3.221 4.394 4.202 1.024 1.061 1.912 5.226 1.333 13.737l-.084 1.231 1.132.492a76.586 76.586 0 0021.904 5.875l1.837.21.108-1.846c.238-4.047.506-5.099 1.301-8.222.556-2.183 1.316-5.171 2.461-10.618 1.188-5.664.573-10.308-1.829-13.804-3.564-5.184-10.381-6.817-15.2-7.593zm13.604 20.681c-1.129 5.374-1.879 8.321-2.427 10.473-.701 2.756-1.033 4.06-1.274 7.014a73.106 73.106 0 01-17.964-4.897c.66-12.012-1.618-14.37-2.385-15.162-1.01-1.046-2.637-2.566-4.52-4.327-4.756-4.447-11.943-11.167-14.738-15.56-3.893-6.118-11.537-22.944-11.606-23.095-.189-.438-1.035-2.667.874-3.583.229-.109.438-.163.639-.163 1.229 0 2.586 2.077 3.015 3.021l9.788 15.307c.471.916 6.408 12.186 17.009 17.352a1.748 1.748 0 002.34-.806 1.75 1.75 0 00-.807-2.34c-8.351-4.068-13.688-12.711-15.078-15.166.327-.7 1.003-1.763 2.115-1.763.547 0 1.197.221 1.937.656.993.587 2.466 2.421 4.025 4.363 3.522 4.387 8.347 10.395 14.897 11.451 4.183.675 10.068 2.043 12.872 6.124 1.839 2.675 2.272 6.411 1.288 11.101zM133.915 66.983a4.94 4.94 0 00-2.154-.509c-3.602 0-5.723 4.059-6.15 4.962l-8.089 12.624c-.951-1.1-2.313-1.982-4.144-1.982-1.181 0-2.431.385-3.716 1.143-1.543.91-3.058 2.797-4.975 5.185-3.344 4.164-7.504 9.346-12.726 10.188-4.818.776-11.637 2.409-15.201 7.598-2.401 3.496-3.017 8.14-1.827 13.803 1.145 5.45 1.905 8.439 2.461 10.622.794 3.121 1.062 4.173 1.3 8.218l.108 1.846 1.837-.21a76.562 76.562 0 0021.903-5.875l1.131-.492-.083-1.23c-.578-8.514.311-12.679 1.333-13.737.948-.981 2.543-2.472 4.389-4.198 5.179-4.842 12.271-11.474 15.306-16.242 4.026-6.325 11.532-22.846 11.853-23.553 1.028-2.295 1.195-6.36-2.556-8.161zm-.635 6.72c-.077.169-7.721 16.994-11.615 23.112-2.796 4.395-9.985 11.116-14.743 15.564-1.88 1.759-3.504 3.277-4.515 4.322-.765.792-3.042 3.149-2.385 15.162a73.042 73.042 0 01-17.963 4.897c-.241-2.952-.573-4.256-1.273-7.009-.548-2.152-1.298-5.1-2.427-10.478-.985-4.69-.553-8.426 1.286-11.103 2.805-4.081 8.69-5.449 12.873-6.124 6.551-1.057 11.375-7.065 14.897-11.452 1.56-1.942 3.032-3.776 4.025-4.362.738-.436 1.39-.656 1.937-.656 1.107 0 1.785 1.065 2.115 1.766-1.386 2.454-6.703 11.083-15.079 15.163a1.751 1.751 0 00.767 3.323c.258 0 .519-.057.766-.177 10.458-5.095 16.379-16.133 16.989-17.313l9.686-15.115.124-.229c.423-.946 1.77-3.021 3.015-3.021.201 0 .41.054.639.163 1.909.918 1.062 3.147.881 3.567zM71.521 10.975c.69 0 1.25-.56 1.25-1.25V2.978a1.25 1.25 0 00-2.5 0v6.747c0 .69.559 1.25 1.25 1.25zM55.685 13.653a1.25 1.25 0 102.265-1.056l-2.852-6.114a1.25 1.25 0 10-2.265 1.057l2.852 6.113zM44.124 23.379c.234.197.52.293.803.293a1.25 1.25 0 00.805-2.207l-5.168-4.338a1.25 1.25 0 00-1.608 1.914l5.168 4.338zM31.243 35.332l6.515 1.746a1.25 1.25 0 10.646-2.414l-6.515-1.746a1.248 1.248 0 10-.646 2.414zM88.063 14.258a1.25 1.25 0 001.661-.605l2.852-6.114a1.25 1.25 0 00-2.265-1.057l-2.852 6.114a1.249 1.249 0 00.604 1.662zM100.48 23.672c.283 0 .568-.096.803-.293l5.169-4.338a1.25 1.25 0 10-1.608-1.914l-5.169 4.338a1.25 1.25 0 00.805 2.207zM106.119 36.194a1.249 1.249 0 001.53.884l6.517-1.746a1.249 1.249 0 10-.646-2.414l-6.517 1.746a1.249 1.249 0 00-.884 1.53z"/></g>
</svg>
