<svg xmlns="http://www.w3.org/2000/svg" width="141.732" height="141.731">
  <g fill="#C28F33"><path d="M122.047 113.812c-1.789-1.654-3.69-2.736-5.676-3.514a65.958 65.958 0 002.084-2.081l-2.465-2.342a59.328 59.328 0 01-2.769 2.728l.852.924c-1.702-.484-3.457-.826-5.249-1.175-3.234-.629-6.579-1.28-10.342-2.805l-.334-.136a226.39 226.39 0 01-3.996-1.657c-.815-.354-1.82-1.102-2.359-3.749-.203-1.003-.25-1.885-.137-2.693l12.449-.017v-14.32c1.68-.947 2.725-1.838 3.293-2.402 7.904-.416 14.221-7.401 14.221-15.953 0-8.261-5.889-15.078-13.412-15.908-1.039-14.787-17.086-27.9-34.651-27.9-17.563 0-33.606 13.113-34.645 27.9-7.522.83-13.41 7.647-13.41 15.908 0 8.818 6.71 15.993 14.957 15.993h1.603V50.228c0-12.373 13.469-26.212 31.495-26.212 18.03 0 31.502 13.839 31.502 26.212v28.155a9.958 9.958 0 01-.952.79V57.104c0-16.542-13.108-29.04-30.495-29.072l-.118-.003-.038.004c-17.333.078-30.391 12.561-30.391 29.071v40.19l12.45.017c.112.807.065 1.688-.138 2.693-.537 2.647-1.542 3.395-2.351 3.746a216.359 216.359 0 01-3.885 1.612l-.448.183c-3.768 1.525-7.111 2.176-10.346 2.806-1.716.334-3.396.662-5.03 1.115l.354-.392a60.388 60.388 0 01-2.802-2.695l-2.436 2.371a60.667 60.667 0 001.809 1.776c-1.784.76-3.499 1.787-5.12 3.286-.833.771-1.59 1.806-2.313 3.16l-.71 1.33 1.084 1.049C36.916 132.637 55 139.953 74.104 139.953c18.734 0 36.563-7.071 50.203-19.911l1.068-1.006-.639-1.321c-.831-1.717-1.71-2.993-2.689-3.903zM38.855 77.289c-5.725-.854-10.149-6.21-10.149-12.67 0-6.461 4.425-11.817 10.149-12.671v25.341zm79.559-12.67c0 6.46-4.426 11.816-10.151 12.67V51.948c5.725.854 10.151 6.21 10.151 12.671zm-18.309 28.682l-6.702.009v-6.867c2.654-.43 4.868-1.02 6.702-1.673v8.531zM47.063 57.104c0-14.243 11.356-25.012 26.429-25.072l.087.003.05-.002c15.096.038 26.477 10.813 26.477 25.071v24.238c-1.716.698-3.916 1.369-6.702 1.854V66.413c0-2.194-.087-4.956-.194-6.155-.153-1.755-3.191-5.017-5.793-5.017h-13.3c-1.727 0-3.62-1.392-4.136-3.04l-1.113-3.557c-.582-1.861-1.432-2.257-2.115-2.239-.644.005-1.526.404-2.078 2.273l-1.04 3.52c-.487 1.649-2.308 3.043-3.977 3.043-2.229 0-4.852.973-5.324 2.775-.353 1.341-.566 6.49-.566 8.396V93.31l-6.704-.009V57.104zm27.041 78.849c-17.526 0-34.146-6.515-46.979-18.378.24-.332.479-.608.714-.826 3.122-2.886 6.719-3.586 11.272-4.472 3.262-.634 6.958-1.354 11.089-3.026l.451-.184a217.207 217.207 0 003.963-1.646c2.465-1.072 3.997-3.238 4.683-6.622.469-2.313.343-4.344-.384-6.212l-.496-1.272-2.648-.004V66.413c0-2.197.247-6.925.5-7.889.119-.452 1.496-1.283 3.391-1.283 2.564 0 5.154-1.967 5.895-4.477l1.04-3.52c.063-.213.124-.378.18-.507.058.128.121.292.188.504l1.113 3.557c.779 2.491 3.434 4.442 6.044 4.442h13.299c1.648 0 3.727 2.535 3.801 3.192.103 1.152.187 3.834.187 5.979v17.084c-2.228.286-4.778.451-7.685.438-.662-1.897-2.451-3.271-4.571-3.271h-7.005a4.864 4.864 0 00-4.859 4.858c0 2.68 2.18 4.859 4.859 4.859h7.005c2.11 0 3.892-1.359 4.562-3.243.105.001.215.004.318.004 2.742 0 5.188-.156 7.376-.419v6.588l-2.651.004-.494 1.274c-.727 1.872-.853 3.903-.385 6.211.688 3.385 2.221 5.55 4.692 6.624 1.357.584 2.722 1.14 4.074 1.691l.337.137c4.126 1.671 7.822 2.391 11.083 3.024 4.554.886 8.15 1.586 11.269 4.468.367.341.738.817 1.109 1.423-12.746 11.484-29.138 17.788-46.337 17.788zm6.698-50.431c0 .912-.742 1.654-1.654 1.654h-7.005c-.912 0-1.654-.742-1.654-1.654s.742-1.653 1.654-1.653h7.005c.912 0 1.654.741 1.654 1.653zM83.038 3.521a62.147 62.147 0 00-4.079-.511l-.311 3.387c1.281.117 2.579.279 3.856.481l.534-3.357zM91.048 5.339a62.623 62.623 0 00-3.975-1.041l-.754 3.314c1.254.285 2.519.617 3.76.986l.969-3.259zM59.348 7.778l-.793-3.307a62.681 62.681 0 00-3.963 1.092l1.01 3.246a59.539 59.539 0 013.746-1.031zM51.933 10.089l-1.225-3.172c-1.27.49-2.54 1.029-3.778 1.604l1.432 3.084a57.99 57.99 0 013.571-1.516zM44.896 13.354l-1.631-2.984a61.652 61.652 0 00-3.537 2.089l1.824 2.869a58.96 58.96 0 013.344-1.974zM67.005 6.467l-.354-3.381a63.35 63.35 0 00-4.071.56l.574 3.352a59.335 59.335 0 013.851-.531zM98.756 8.206a62.594 62.594 0 00-3.808-1.562l-1.186 3.188c1.21.449 2.421.946 3.601 1.476l1.393-3.102zM74.768 6.169l.092-3.398a63.27 63.27 0 00-4.11.024l.131 3.398a60.674 60.674 0 013.887-.024zM123.932 28.791a63.58 63.58 0 00-2.506-3.256l-2.625 2.161a59.377 59.377 0 012.369 3.079l2.762-1.984zM128.48 44.429l3.182-1.197a63.256 63.256 0 00-1.569-3.792l-3.098 1.404a59.28 59.28 0 011.485 3.585zM125.277 37.363l2.996-1.605a62.643 62.643 0 00-2.056-3.554l-2.885 1.799a58.94 58.94 0 011.945 3.36zM130.725 51.862l3.313-.764a61.097 61.097 0 00-1.057-3.973l-3.254.982a58.93 58.93 0 01.998 3.755zM131.968 59.531l3.385-.324a64.046 64.046 0 00-.524-4.075l-3.355.543a61.51 61.51 0 01.494 3.856zM112.707 16.843a63.039 63.039 0 00-3.265-2.498l-1.977 2.768a59.724 59.724 0 013.089 2.361l2.153-2.631zM116.233 24.776l2.479-2.328a63.163 63.163 0 00-2.91-2.9l-2.32 2.484a59.825 59.825 0 012.751 2.744zM106.02 12.065a61.834 61.834 0 00-3.568-2.049l-1.594 3.002a58.4 58.4 0 013.371 1.938l1.791-2.891zM38.343 17.521l-2.006-2.746a61.359 61.359 0 00-3.235 2.535l2.184 2.605a57.804 57.804 0 013.057-2.394zM18.265 86.934l-3.16 1.252a62.75 62.75 0 001.639 3.77l3.072-1.459a58.652 58.652 0 01-1.551-3.563z"/><path d="M123.15 96.687l2.875 1.814a62.89 62.89 0 002.079-3.545l-2.988-1.623a59.587 59.587 0 01-1.966 3.354zM121.191 105.146a64.635 64.635 0 002.524-3.242l-2.75-2a60.411 60.411 0 01-2.39 3.068l2.616 2.174zM32.391 22.505l-2.352-2.455a64.03 64.03 0 00-2.875 2.935l2.506 2.299a59.275 59.275 0 012.721-2.779zM25.662 105.713l2.586-2.207a59.274 59.274 0 01-2.425-3.037l-2.725 2.033a62.581 62.581 0 002.564 3.211zM21.598 93.949l-2.969 1.656a61.752 61.752 0 002.12 3.521l2.854-1.848a58.982 58.982 0 01-2.005-3.329zM135.607 63.307l-3.398.104a59.034 59.034 0 01-.011 3.888l3.398.121a65.576 65.576 0 00.011-4.113zM129.632 82.599l3.25.998a63.004 63.004 0 001.078-3.968l-3.309-.783a60.126 60.126 0 01-1.019 3.753zM131.42 75.035l3.354.563c.227-1.35.41-2.722.546-4.078l-3.383-.34a59.312 59.312 0 01-.517 3.855zM126.856 89.857l3.09 1.42a64.027 64.027 0 001.594-3.789l-3.176-1.215a58.516 58.516 0 01-1.508 3.584zM19.086 41.495l-3.115-1.363a62.923 62.923 0 00-1.526 3.821l3.197 1.156a58.605 58.605 0 011.444-3.614zM16.441 48.803l-3.268-.939a63.578 63.578 0 00-1.006 3.983l3.322.725c.275-1.258.595-2.525.952-3.769zM22.675 34.598l-2.908-1.764a64.341 64.341 0 00-2.017 3.584l3.016 1.57a59.431 59.431 0 011.909-3.39zM27.137 28.232l-2.652-2.129a65.18 65.18 0 00-2.468 3.286l2.783 1.953a60.224 60.224 0 012.337-3.11zM14.513 71.897l-3.379.383c.155 1.364.355 2.733.597 4.067l3.346-.604a58.933 58.933 0 01-.564-3.846zM14.79 56.395l-3.363-.504a63.063 63.063 0 00-.474 4.083l3.389.279c.106-1.284.257-2.582.448-3.858zM15.892 79.544l-3.299.822a61.64 61.64 0 001.126 3.952l3.236-1.041a58.7 58.7 0 01-1.063-3.733zM14.138 65.198c0-.354.003-.708.009-1.062l-3.398-.064c-.008.375-.011.75-.011 1.129.002 1 .025 1.993.071 2.981l3.396-.158a63.16 63.16 0 01-.067-2.826z"/></g>
</svg>
