<svg xmlns="http://www.w3.org/2000/svg" width="141.732" height="141.731">
  <g fill="#C28F33"><path d="M138.618 69.858l-23.889-36.31c.77.091 1.211.161 1.238.166a2 2 0 00.662-3.946c-.819-.136-20.297-3.285-38.934 4.844-.035.016-.064.038-.098.055a8.782 8.782 0 00-1.45-1.362v-3.944c0-2.258-2.298-4.026-5.23-4.026-2.936 0-5.234 1.769-5.234 4.026v3.918a8.687 8.687 0 00-3.032 4.181 60.174 60.174 0 00-.95-.008c-20.079 0-37.335 9.952-38.072 10.383a2 2 0 002.02 3.453l.03-.018L3.317 89.024H1.873v1.637c0 12.468 12.099 22.61 26.97 22.61 14.872 0 26.971-10.143 26.971-22.61v-1.637h-1.487L29.298 49.413c5.994-2.854 18.64-7.96 32.421-7.96.181 0 .363.003.546.005a8.726 8.726 0 003.419 5.814v59.813h-.982l-4.263 12.966H49.808c-3.831 0-9.909 3.735-9.909 13.759v2h62.047v-2c0-10.023-6.078-13.759-9.909-13.759H81.394l-4.262-12.966h-.983V47.273c2.125-1.596 3.508-4.128 3.508-6.983 0-.709-.095-1.395-.254-2.055 11.655-5.054 23.927-5.394 30.876-5.048L87.665 69.858h-1.471v1.637c0 12.468 12.099 22.611 26.97 22.611 14.872 0 26.971-10.144 26.971-22.611v-1.637h-1.517zm-109.775 40.14c-12.391 0-22.591-7.801-23.612-17.7H7.3c.027.254.051.508.092.759l2.672-.432c-.018-.108-.025-.218-.039-.327h3.221c2.444 6.234 8.507 10.668 15.598 10.668 7.092 0 13.155-4.434 15.601-10.668h3.229l-.005.045 2.682.369c.019-.137.027-.276.043-.414h2.064c-1.023 9.899-11.224 17.7-23.615 17.7zM14.081 86.204c0-8.141 6.622-14.763 14.762-14.763 8.142 0 14.765 6.622 14.765 14.763 0 8.14-6.623 14.762-14.765 14.762-8.14 0-14.762-6.622-14.762-14.762zm31.27 2.82c.157-.919.257-1.857.257-2.82 0-9.243-7.521-16.763-16.765-16.763-9.242 0-16.762 7.52-16.762 16.763 0 .963.1 1.901.256 2.82H5.642l22.411-37.838L51.96 89.024h-6.609zm24.333-59.397c.195-.125.624-.292 1.234-.292.609 0 1.036.166 1.23.291v2.021a8.759 8.759 0 00-1.23-.097c-.42 0-.83.039-1.234.096v-2.019zm22.352 94.424c1.235 0 2.858.782 4.092 2.616h-1.073v3.094h1.228v-2.869c.748 1.199 1.332 2.815 1.56 4.918h-53.84c.607-5.612 3.749-7.759 5.806-7.759H92.036zm-14.852-4H64.649l2.948-8.966h6.638l2.949 8.966zm-5.036-12.966h-2.465V48.931c.404.058.814.098 1.234.098.419 0 .827-.04 1.23-.097v58.153zm-1.23-60.377a6.428 6.428 0 01-6.421-6.41c.118-.244.19-.515.195-.803a1.95 1.95 0 00-.063-.504 6.395 6.395 0 016.288-5.121 6.426 6.426 0 016.418 6.42 6.424 6.424 0 01-6.417 6.418zm41.454-13.104l23.853 36.254h-7.866c.242-1.061.383-2.158.383-3.291 0-8.137-6.621-14.757-14.759-14.757-8.137 0-14.757 6.62-14.757 14.757 0 1.133.141 2.23.383 3.291h-9.593l22.356-36.254zm14.369 32.963c0 7.033-5.724 12.756-12.759 12.756-7.034 0-12.757-5.723-12.757-12.756 0-7.034 5.723-12.757 12.757-12.757 7.036.001 12.759 5.723 12.759 12.757zm-13.577 24.266c-12.391 0-22.591-7.802-23.612-17.701h2.094c.022.18.036.36.064.539l2.674-.428c-.006-.037-.008-.074-.014-.111h6.416c2.421 4.847 7.42 8.191 13.196 8.191 5.777 0 10.776-3.345 13.198-8.191h6.04l1.447.199c.009-.066.013-.133.021-.199h2.089c-1.021 9.899-11.221 17.701-23.613 17.701z"/><path d="M46.327 126.667h1.228v3.094h-1.228zM70.055 126.667h2.5v3.094h-2.5zM75.055 126.667h2.5v3.094h-2.5zM65.055 126.667h2.5v3.094h-2.5zM80.055 126.667h2.5v3.094h-2.5zM60.055 126.667h2.5v3.094h-2.5zM90.055 126.667h2.5v3.094h-2.5zM85.055 126.667h2.5v3.094h-2.5zM50.055 126.667h2.5v3.094h-2.5zM55.055 126.667h2.5v3.094h-2.5zM46.545 96.051l2.441 1.168c.343-.715.63-1.454.854-2.197l-2.59-.785a12.946 12.946 0 01-.705 1.814zM37.893 103.957l1.084 2.48c.703-.308 1.394-.65 2.051-1.021l-1.326-2.359a20.44 20.44 0 01-1.809.9zM30.013 105.773l.131 2.703c.76-.036 1.521-.106 2.266-.209l-.369-2.682a23.04 23.04 0 01-2.028.188zM34.042 105.222l.604 2.639a25.304 25.304 0 002.198-.609l-.846-2.572c-.633.207-1.291.389-1.956.542zM44.368 99.322l2.035 1.785c.519-.592.996-1.214 1.42-1.85l-2.252-1.502a14.87 14.87 0 01-1.203 1.567zM13.169 102.976c.575.496 1.189.97 1.826 1.406l1.531-2.232a17.97 17.97 0 01-1.588-1.223l-1.769 2.049zM12.277 97.994l-2.223 1.545c.436.626.925 1.239 1.453 1.82l2.004-1.82a15.55 15.55 0 01-1.234-1.545zM10.523 94.51l-2.572.846c.242.734.545 1.466.902 2.173l2.416-1.219a13.28 13.28 0 01-.746-1.8zM25.609 108.311c.748.092 1.51.152 2.265.18l.098-2.705a23.295 23.295 0 01-2.03-.162l-.333 2.687zM21.162 107.354c.724.226 1.466.421 2.206.579l.566-2.646a22.244 22.244 0 01-1.964-.517l-.808 2.584zM16.954 105.579c.666.362 1.361.695 2.065.99l1.047-2.496a20.714 20.714 0 01-1.821-.873l-1.291 2.379zM41.401 101.982l1.566 2.207a20.856 20.856 0 001.803-1.435l-1.801-2.021a17.85 17.85 0 01-1.568 1.249zM105.481 87.97c.72.225 1.461.42 2.204.58l.57-2.646a22.091 22.091 0 01-1.966-.518l-.808 2.584zM101.273 86.196c.666.362 1.361.695 2.065.99l1.047-2.496a20.714 20.714 0 01-1.821-.873l-1.291 2.379zM114.332 86.392l.131 2.703a25.34 25.34 0 002.265-.209l-.369-2.682a23.77 23.77 0 01-2.027.188zM109.929 88.929c.748.092 1.51.152 2.265.18l.098-2.705a23.295 23.295 0 01-2.03-.162l-.333 2.687zM97.487 83.592c.573.496 1.188.97 1.827 1.408l1.531-2.232a17.751 17.751 0 01-1.587-1.223l-1.771 2.047zM96.598 78.609l-2.223 1.547c.436.625.925 1.238 1.453 1.819l2.004-1.82a15.058 15.058 0 01-1.234-1.546zM94.844 75.126l-2.572.846c.242.734.545 1.466.902 2.173l2.416-1.219a13.028 13.028 0 01-.746-1.8zM130.864 76.669l2.441 1.168c.343-.715.63-1.454.854-2.197l-2.59-.785a12.824 12.824 0 01-.705 1.814zM128.688 79.939l2.035 1.785c.519-.592.996-1.214 1.42-1.85l-2.252-1.502a14.768 14.768 0 01-1.203 1.567zM125.721 82.601l1.566 2.207a20.856 20.856 0 001.803-1.435l-1.801-2.021c-.494.44-1.021.86-1.568 1.249zM118.36 85.84l.604 2.639a25.304 25.304 0 002.198-.609l-.846-2.572c-.632.207-1.291.39-1.956.542zM122.211 84.575l1.084 2.48c.703-.308 1.394-.65 2.051-1.021l-1.326-2.359a20.44 20.44 0 01-1.809.9z"/></g>
</svg>
