<svg xmlns="http://www.w3.org/2000/svg" width="141.732" height="141.731">
  <g fill="#C28F33"><path d="M71.11 1.542c-38.285 0-69.433 31.146-69.433 69.432 0 38.284 31.147 69.431 69.433 69.431 38.286 0 69.434-31.146 69.434-69.431 0-38.286-31.148-69.432-69.434-69.432zm0 134.351c-35.797 0-64.921-29.123-64.921-64.919 0-35.797 29.124-64.92 64.921-64.92 35.798 0 64.922 29.123 64.922 64.92 0 35.796-29.124 64.919-64.922 64.919z"/><path d="M84.764 58.154c.257-.311.872-.583 1.401-.583h.011s.206.021.542.021c1.148 0 3.268-.233 4.558-1.793.434-.521.506-1.206.598-2.072.114-1.08.271-2.559 1.181-4.358 2.767-5.475 7.261-11.755 7.306-11.817.317-.442.678-.943.371-1.54l-.29-.55h-.61c-.462 0-.758.273-1.156.69-.054.057-5.468 5.699-10.353 9.455-1.572 1.209-2.968 1.616-3.986 1.913-.822.24-1.472.43-1.903.95-1.717 2.074-.831 5.21-.792 5.343.121.419-.032 1.16-.31 1.496l-5.512 6.65a10.137 10.137 0 00-4.708-1.18c-1.961 0-3.852.57-5.494 1.627L51.722 48.513c-.309-.309-.53-1.032-.447-1.461.025-.136.615-3.341-1.291-5.246-.478-.477-1.15-.612-2.002-.784-1.065-.214-2.523-.508-4.233-1.584-5.193-3.265-11.024-8.324-11.082-8.374-.407-.354-.705-.587-1.121-.587l-.655.007-.267.584c-.292.639.143 1.14.491 1.543.052.059 5.164 5.975 8.447 11.189 1.056 1.679 1.331 3.104 1.532 4.146.162.841.29 1.506.769 1.983 1.885 1.888 5.098 1.318 5.246 1.29.458-.091 1.164.151 1.461.448l13.9 13.901a10.096 10.096 0 00-1.555 5.405c0 4.091 2.428 7.616 5.914 9.237L55.26 111.988a.998.998 0 00.94 1.342.999.999 0 00.939-.658L68.718 80.87a10.15 10.15 0 002.393.295c5.621 0 10.193-4.571 10.193-10.191 0-2.242-.717-4.362-2.069-6.145l5.529-6.675zm-1.894-1.569c.699-.845.996-2.276.69-3.327-.177-.624-.449-2.472.386-3.484.114-.09.577-.225.949-.333 1.104-.322 2.774-.81 4.645-2.247 1.575-1.211 3.184-2.593 4.656-3.926-1.014 1.66-2.048 3.458-2.928 5.199-1.074 2.127-1.261 3.886-1.384 5.05-.043.4-.096.899-.148 1.006-.799.966-2.377 1.07-3.019 1.07-.203 0-.334-.011-.351-.012-1.097-.111-2.449.458-3.145 1.298l-9.593 11.58c-.11-.108-.234-.2-.356-.294l9.598-11.58zm-10.049 8.991l-1.545 1.864c-.056-.003-.107-.017-.164-.017-.149 0-.291.026-.436.044l-1.727-1.727a5.832 5.832 0 013.872-.164zM47.304 49.202a3.04 3.04 0 00-.569.052c-.01 0-2.335.382-3.434-.711-.078-.122-.17-.597-.243-.977-.219-1.13-.548-2.836-1.803-4.832-1.059-1.681-2.285-3.412-3.474-5.002 1.558 1.163 3.251 2.36 4.902 3.398 2.02 1.271 3.755 1.62 4.902 1.852.394.079.884.179.983.238.956.955.858 2.819.741 3.453-.208 1.078.221 2.477.997 3.253l18.42 18.421a3.68 3.68 0 00-.32.329L49.983 50.253c-.629-.629-1.705-1.051-2.679-1.051zm18.123 21.775a5.652 5.652 0 01.399-2.052l1.731 1.732c-.012.118-.035.232-.035.354 0 1.235.625 2.323 1.575 2.97l-.718 1.971a5.68 5.68 0 01-2.952-4.975zm11.365-.003a5.687 5.687 0 01-5.682 5.68c-.283 0-.561-.027-.833-.068l.728-1.996c.036.001.07.011.107.011a3.588 3.588 0 003.587-3.588c0-.216-.026-.426-.063-.632l1.568-1.893c.378.769.588 1.609.588 2.486zM70.621 28.826a1 1 0 001-1v-9.712a53.5 53.5 0 012.331.062l.199-3.828a56.363 56.363 0 00-2.53-.065v-1.131a1 1 0 10-2 0v14.675c0 .552.447.999 1 .999z"/><path d="M48.229 34.356a1 1 0 101.732-1l-7.337-12.707a.999.999 0 00-1.366-.366.999.999 0 00-.366 1.366l7.337 12.707zM20.26 43.371l12.706 7.338a.998.998 0 001.366-.366 1 1 0 00-.366-1.366L21.26 41.639a.998.998 0 00-1.366.366.999.999 0 00.366 1.366zM50.44 107.79a1.002 1.002 0 00-1.366.366l-4.81 8.332c-.525-.312-1.059-.614-1.565-.939l-2.068 3.227c.556.356 1.141.69 1.718 1.031l-.61 1.057a1 1 0 001.732 1l7.336-12.707a1 1 0 00-.367-1.367zM93.994 107.668a1 1 0 10-1.732 1l4.818 8.346a52.92 52.92 0 01-2.481 1.324l1.709 3.432c.9-.448 1.803-.935 2.689-1.437l.601 1.041a1 1 0 101.732-1l-7.336-12.706zM121.962 98.651l-1.054-.608c.144-.263.3-.517.438-.78l-3.393-1.783c-.115.219-.246.43-.364.647l-8.334-4.813a1 1 0 10-1 1.732l8.354 4.823c-.048.08-.089.164-.137.243l3.285 1.975c.059-.099.111-.203.169-.302l1.035.598a.998.998 0 001.366-.366 1 1 0 00-.365-1.366zM128.968 69.522h-14.67a1 1 0 100 2h14.67a1 1 0 100-2zM107.4 49.495a1 1 0 001.366.366l8.375-4.836c.216.38.442.75.648 1.135l3.379-1.809c-.225-.422-.474-.826-.709-1.242l1.012-.584a1 1 0 10-1-1.732l-12.705 7.336a1 1 0 00-.366 1.366zM91.414 32.867a1 1 0 001.732 1l7.336-12.707a1 1 0 00-1.732-1l-.582 1.009a56.583 56.583 0 00-2.204-1.158l-1.686 3.441c.662.324 1.318.682 1.973 1.037l-4.837 8.378z"/><path d="M71.11 9.796c-33.733 0-61.178 27.444-61.178 61.179s27.444 61.179 61.178 61.179c33.734 0 61.179-27.444 61.179-61.179S104.845 9.796 71.11 9.796zm0 120.357c-32.631 0-59.178-26.548-59.178-59.179S38.479 11.796 71.11 11.796s59.179 26.548 59.179 59.179-26.548 59.178-59.179 59.178z"/><path d="M24.442 95.813a50.486 50.486 0 01-1.343-2.697l-3.48 1.607c.448.97.934 1.944 1.442 2.896l3.381-1.806zM19.327 81.683l-3.754.771c.216 1.052.467 2.113.745 3.153l3.703-.99a51.793 51.793 0 01-.694-2.934zM80.586 15.061a56.406 56.406 0 00-3.206-.447l-.422 3.809c.997.11 2.003.251 2.989.418l.639-3.78zM18.265 72.695l-.004-.195h9.664a1 1 0 100-2H13.252a1 1 0 100 2h1.177c.003.107.002.216.006.322l3.83-.127zM86.899 16.505a56.061 56.061 0 00-3.136-.813l-.855 3.736c.981.225 1.965.479 2.921.757l1.07-3.68zM18.447 75.712l-3.818.34c.096 1.077.224 2.159.38 3.215l3.791-.559a52.353 52.353 0 01-.353-2.996zM120.317 51.626l3.566-1.406a56.906 56.906 0 00-1.272-2.971l-3.479 1.607c.423.914.821 1.845 1.185 2.77zM122.205 57.356l3.703-.988a56.43 56.43 0 00-.924-3.104l-3.641 1.199c.314.951.603 1.925.862 2.893zM123.421 63.264l3.793-.555a55.944 55.944 0 00-.562-3.188l-3.754.771c.204.991.379 1.99.523 2.972zM123.957 69.277l3.83-.125a58.617 58.617 0 00-.194-3.229l-3.818.34c.087.986.149 2.001.182 3.014zM93.014 18.67a56.558 56.558 0 00-3.026-1.171l-1.279 3.613c.952.337 1.899.704 2.817 1.091l1.488-3.533zM102.042 28.117l2.246-3.105a57.242 57.242 0 00-2.678-1.824l-2.066 3.229c.839.536 1.68 1.108 2.498 1.7zM109.308 29.098a57.3 57.3 0 00-2.451-2.113l-2.42 2.973c.774.63 1.544 1.294 2.287 1.973l2.584-2.833zM110.943 36.245l2.891-2.518a55.702 55.702 0 00-2.199-2.38l-2.738 2.682a51.744 51.744 0 012.046 2.216zM114.65 41.009l3.154-2.178a57.29 57.29 0 00-1.913-2.609l-3.025 2.354a52.219 52.219 0 011.784 2.433zM20.882 87.508l-3.639 1.203c.337 1.02.708 2.043 1.103 3.043l3.564-1.408a53.066 53.066 0 01-1.028-2.838zM109.13 107.682l2.758 2.662a58.81 58.81 0 002.182-2.391l-2.902-2.504a55.24 55.24 0 01-2.038 2.233zM104.698 111.779l2.438 2.957a57.548 57.548 0 002.438-2.129l-2.602-2.814a53.825 53.825 0 01-2.274 1.986zM99.834 115.347l2.086 3.217c.894-.58 1.79-1.199 2.663-1.84l-2.268-3.09a52.009 52.009 0 01-2.481 1.713zM113.072 103.107l3.041 2.334a57.902 57.902 0 001.898-2.624l-3.168-2.158a51.596 51.596 0 01-1.771 2.448zM89.063 120.709l1.303 3.605a56.2 56.2 0 003.008-1.188l-1.51-3.523a51.49 51.49 0 01-2.801 1.106zM122.975 81.288l3.76.746c.209-1.055.391-2.129.539-3.192l-3.797-.529a52.443 52.443 0 01-.502 2.975zM123.809 75.313l3.82.311c.087-1.076.145-2.163.171-3.232l-3.832-.092a52.834 52.834 0 01-.159 3.013zM83.281 122.435l.881 3.73a56.63 56.63 0 003.128-.835l-1.095-3.674a51.81 51.81 0 01-2.914.779zM121.461 87.13l3.65 1.17c.329-1.026.632-2.072.901-3.107l-3.711-.963a52.094 52.094 0 01-.84 2.9zM119.282 92.766l3.488 1.586c.443-.973.865-1.979 1.257-2.99l-3.574-1.383a53.924 53.924 0 01-1.171 2.787zM46.279 121.951c.963.471 1.956.922 2.952 1.34l1.484-3.533a53.922 53.922 0 01-2.753-1.25l-1.683 3.443zM27.583 100.961a53.245 53.245 0 01-1.465-2.255l8.335-4.813a.999.999 0 00.366-1.366.998.998 0 00-1.366-.366l-12.705 7.336a.999.999 0 00.501 1.866c.17 0 .342-.043.499-.134l1.047-.604a57.166 57.166 0 001.636 2.516l3.152-2.18zM35.385 114.982a57.96 57.96 0 002.568 1.97l2.246-3.105a53.284 53.284 0 01-2.396-1.839l-2.418 2.974zM77.339 123.483l.447 3.807a55.228 55.228 0 003.204-.472l-.666-3.773c-.991.175-1.995.322-2.985.438zM29.368 103.394l-3.023 2.355a58.21 58.21 0 002.059 2.495l2.887-2.521a53.846 53.846 0 01-1.923-2.329zM33.341 107.938l-2.738 2.682a57.545 57.545 0 002.328 2.248l2.584-2.832a53.247 53.247 0 01-2.174-2.098zM64.868 127.341c1.073.117 2.159.206 3.227.262l.199-3.828a53.119 53.119 0 01-3.008-.244l-.418 3.81zM74.333 123.75c-.571.035-1.154.039-1.734.056v-9.607a1 1 0 10-2 0v14.672a1 1 0 102 0v-1.231c.657-.017 1.317-.023 1.965-.063l-.231-3.827zM52.259 124.46c1.021.359 2.06.693 3.088.992l1.068-3.682a51.518 51.518 0 01-2.881-.926l-1.275 3.616zM58.481 126.264c1.047.239 2.116.451 3.178.63l.637-3.779a52.448 52.448 0 01-2.959-.587l-.856 3.736z"/></g>
</svg>
