<svg xmlns="http://www.w3.org/2000/svg" width="141.732" height="141.731"><path clip-rule="evenodd" fill="none" stroke="#C28F33" stroke-width="1.726" stroke-miterlimit="10" d="M137.415 131.61H6.421"/>
  <g fill="#C28F33"><path d="M20.736 91.665h101.821a3.742 3.742 0 003.738-3.737V28.08a3.743 3.743 0 00-3.738-3.739H20.736a3.74 3.74 0 00-3.732 3.739v59.848a3.74 3.74 0 003.732 3.737zM122.548 28.08l.002 59.837-101.798.011-.016-59.839 101.812-.009z"/><path d="M24.874 86.852h93.854a2.918 2.918 0 002.914-2.914v-51.5a2.918 2.918 0 00-2.914-2.914H24.874a2.918 2.918 0 00-2.914 2.914v51.5a2.918 2.918 0 002.914 2.914zm-.832-54.414c0-.459.373-.832.832-.832h93.854c.459 0 .832.373.832.832v51.5a.833.833 0 01-.832.832H24.874a.833.833 0 01-.832-.832v-51.5zM140.218 124.522l-13.406-28.628c-.694-1.48-2.387-2.556-4.022-2.556H20.51c-1.632 0-3.353 1.127-4.004 2.622l-12.44 28.587c-.429.982-.367 2.015.169 2.833.535.817 1.457 1.287 2.529 1.287h130.815c1.082 0 2.005-.475 2.532-1.302.526-.826.565-1.862.107-2.843zm-132.227.398L19.94 97.459c.072-.146.408-.366.569-.372h102.278c.179.004.55.239.63.398l12.848 27.435H7.991z"/><path d="M86.771 114.489a1.65 1.65 0 00-1.535-1.117H56.78c-.693 0-1.338.483-1.533 1.152l-2.099 7.252c-.124.423-.049.859.206 1.199s.653.534 1.094.534h33.383c.445 0 .846-.198 1.098-.545a1.34 1.34 0 00.182-1.212l-2.34-7.263zm-31.354 6.939l1.729-5.974h27.749l1.924 5.974H55.417zM120.429 98.493H23.267c-.727 0-1.479.476-1.791 1.131l-4.938 10.388c-.219.46-.2.952.051 1.349s.688.625 1.196.625h108.551c.508 0 .956-.237 1.199-.635.243-.396.25-.903.019-1.356l-5.33-10.403c-.327-.637-1.08-1.099-1.795-1.099zM18.706 110.022l4.561-9.566 97.13-.003c.027.007.079.036.079.031l4.887 9.538H18.706zM76.045 31.657l1.728 1.726-1.897 1.9-1.729-1.727zM57.625 53.534v28.831l-.358.297h60.107l-.244-.196V42.478l.157-.126H68.808l1.37-1.37-1.729-1.729-1.899 1.9 1.199 1.198H57.354l.271.225v8.644l-.57-.569-1.899 1.897 1.729 1.728.74-.742zM63.04 80.58l20.205-16.755 3.599 2.984 3.735-3.001 20.879 16.771H63.04zm52.008-36.146V80.58h-.266l-22.54-18.107 22.453-18.039h.353zm-3.677 0L86.865 64.122l-23.74-19.688h48.246zM81.614 62.473L59.777 80.58h-.07V44.434h.157l21.75 18.039zM72.25 35.455l1.725 1.727-1.9 1.899-1.726-1.727zM53.257 54.447l1.727 1.726-1.899 1.899-1.727-1.727zM34.266 73.438l1.728 1.727-1.897 1.9-1.729-1.727zM49.459 58.245l1.727 1.727-1.9 1.9-1.727-1.728zM26.67 81.035l1.727 1.727-1.899 1.899-1.727-1.728zM30.468 77.236l1.726 1.727-1.899 1.898-1.726-1.727zM45.66 62.044l1.727 1.727-1.899 1.899-1.727-1.727zM38.063 69.64l1.728 1.727-1.9 1.9-1.727-1.728zM41.863 65.841l1.726 1.728-1.9 1.898-1.725-1.728z"/></g>
</svg>
