<svg xmlns="http://www.w3.org/2000/svg" width="141.732" height="141.731">
  <g fill="#E3B23C"><path d="M29.824 102.171h2.935v2.936h-2.935zM23.955 102.171h2.935v2.936h-2.935zM11.068 67.271h2.936v2.936h-2.936zM11.068 73.142h2.936v2.935h-2.936zM41.563 102.171h2.935v2.936h-2.935zM18.085 102.171h2.936v2.936h-2.936zM47.433 102.171h2.935v2.936h-2.935zM53.302 102.171h2.936v2.936h-2.936zM11.068 84.881h2.936v2.935h-2.936zM11.068 79.011h2.936v2.935h-2.936zM35.693 102.171h2.936v2.936h-2.936zM14.041 101.888l-2.695 1.158a3.397 3.397 0 003.124 2.061h.681v-2.936h-.681a.47.47 0 01-.429-.283zM11.068 96.619h2.936v2.935h-2.936zM11.068 61.402h2.936v2.935h-2.936zM11.068 90.75h2.936v2.935h-2.936zM10.898 55.082l.634-2.005a110.97 110.97 0 01-2.082-.68l-.672 1.993c.664.224 1.373.455 2.12.692zM51.906 62.506h2.202v2.103h-2.202zM27.929 59.934l.541-2.033-2.128-.57-.547 2.031zM19.396 57.603l.571-2.025c-.716-.202-1.424-.403-2.118-.603l-.581 2.021 2.128.607zM56.309 62.506h2.202v2.103h-2.202zM23.659 58.783l.552-2.029-2.124-.584-.56 2.028zM15.143 56.376l.594-2.018a209.95 209.95 0 01-2.104-.631l-.615 2.012c.688.21 1.396.422 2.125.637zM46.149 63.541H34.372v8.563h11.777v-8.563zm-1.5 7.063h-8.777v-5.563h8.777v5.563z"/><path d="M138.257 44.969H80.102a2.403 2.403 0 00-2.4 2.401v7.745H62.764a2.403 2.403 0 00-2.4 2.401v9.208h-10.2v-.843c0-3.235-1.192-6.511-3.473-6.511H33.462c-.309 0-.597.064-.865.177l.137-.523-2.133-.56-.535 2.034 1.15.302c-.325.507-.587 1.118-.783 1.797-7.216-1.902-13.095-3.551-17.455-4.897-5.549-1.712-7.456-2.578-8.099-2.94v-1.822c.508.22 1.091.456 1.787.712l.728-1.974a31.009 31.009 0 01-1.979-.796l-.535 1.18V32.056c0-1.502 1.978-2.771 4.319-2.771h104.166c2.341 0 4.318 1.27 4.318 2.771v12.848h2.988V32.056c0-3.229-3.209-5.76-7.307-5.76H9.198c-4.098 0-7.308 2.53-7.308 5.76v23.301c0 .826.194 1.485 2.777 2.613v45.83c0 3.999 3.254 7.253 7.254 7.253h48.441v23.577c0 1.323 1.077 2.4 2.4 2.4h58.155c1.323 0 2.4-1.077 2.4-2.4v-7.745h14.938a2.404 2.404 0 002.401-2.401V47.37a2.4 2.4 0 00-2.399-2.401zM33.462 61.371h13.229c.428 0 1.473 1.581 1.473 4.511v3.188c0 2.93-1.045 4.51-1.473 4.51H33.462c-.427 0-1.472-1.58-1.472-4.51v-3.188c0-2.93 1.045-4.511 1.472-4.511zm-21.54 46.195a3.772 3.772 0 01-3.768-3.767V59.282c1.112.38 2.399.798 3.942 1.273 4.466 1.379 10.494 3.067 17.9 5.019-.002.103-.007.205-.007.308v3.188c0 3.235 1.192 6.51 3.472 6.51H46.69c2.142 0 3.323-2.888 3.459-5.919h10.213v32.511h-1.191v2.936h1.191v2.46h-48.44zm107.911 25.978H63.85V58.602h55.983v74.942zm17.339-10.146h-13.853V57.517a2.403 2.403 0 00-2.4-2.401H81.188v-6.66h55.984v74.942z"/><path d="M68.368 65.873h46.944a.55.55 0 100-1.1H68.368a.55.55 0 100 1.1zM68.368 76.021h46.944a.55.55 0 100-1.1H68.368a.55.55 0 100 1.1zM68.368 86.167h46.944a.55.55 0 100-1.1H68.368a.55.55 0 100 1.1zM68.368 96.313h46.944a.55.55 0 100-1.1H68.368a.55.55 0 100 1.1zM68.368 106.461h46.944a.55.55 0 100-1.1H68.368a.55.55 0 100 1.1zM68.368 116.607h46.944a.55.55 0 100-1.1H68.368a.55.55 0 100 1.1z"/></g>
</svg>
