<svg xmlns="http://www.w3.org/2000/svg" width="141.732" height="141.731">
  <g fill="#E3B23C"><path d="M71.394 21.313c-28.354 0-51.422 23.068-51.422 51.424 0 28.354 23.067 51.422 51.422 51.422 28.355 0 51.425-23.067 51.425-51.422-.001-28.356-23.07-51.424-51.425-51.424zm0 100.845c-27.251 0-49.422-22.171-49.422-49.422 0-27.252 22.171-49.424 49.422-49.424 27.253 0 49.425 22.172 49.425 49.424-.001 27.251-22.173 49.422-49.425 49.422z"/><path d="M33.372 96.574a44.677 44.677 0 002.893 4.099l3.121-2.477a41.185 41.185 0 01-2.635-3.733l-3.379 2.111zM47.723 34.961a45.234 45.234 0 00-4.104 2.884l2.471 3.127a40.953 40.953 0 013.738-2.628l-2.105-3.383zM39.597 104.422a44.936 44.936 0 003.729 3.355l2.496-3.105a41.094 41.094 0 01-3.398-3.059l-2.827 2.809zM32.816 86.231l-3.766 1.303a44.919 44.919 0 001.905 4.643l3.596-1.719a40.625 40.625 0 01-1.735-4.227zM30.865 68.196l-3.959-.455a45.664 45.664 0 00-.297 5.004l3.984.018c.008-1.523.098-3.059.272-4.567zM30.829 77.329l-3.963.424a44.6 44.6 0 00.816 4.952l3.889-.869a40.436 40.436 0 01-.742-4.507zM58.066 34.426l-1.295-3.768a44.43 44.43 0 00-4.646 1.896l1.711 3.6a40.549 40.549 0 014.23-1.728zM66.977 32.456l-.42-3.963a44.76 44.76 0 00-4.951.806l.859 3.891a40.668 40.668 0 014.512-.734zM42.666 44.002l-2.803-2.832a45.09 45.09 0 00-3.364 3.723l3.102 2.502a41.028 41.028 0 013.065-3.393zM32.93 59.309l-3.756-1.334a44.529 44.529 0 00-1.409 4.82l3.881.9a40.31 40.31 0 011.284-4.386zM36.933 51.106l-3.361-2.139a44.668 44.668 0 00-2.452 4.379l3.58 1.748a40.96 40.96 0 012.233-3.988zM92.896 107.425l2.119 3.375a45.06 45.06 0 004.092-2.9l-2.482-3.117a41.024 41.024 0 01-3.729 2.642zM100.037 101.739l2.814 2.82a45.44 45.44 0 003.348-3.735l-3.111-2.49a41.237 41.237 0 01-3.051 3.405zM115.976 72.931h-3.984c0 1.527-.085 3.063-.254 4.563l3.961.443a45.52 45.52 0 00.277-5.006zM109.111 96.737a44.97 44.97 0 002.435-4.389l-3.588-1.734a40.425 40.425 0 01-2.218 3.998l3.371 2.125zM84.673 111.375l1.309 3.764a44.616 44.616 0 004.641-1.915l-1.727-3.592a40.807 40.807 0 01-4.223 1.743zM114.861 82.886l-3.885-.885a40.655 40.655 0 01-1.266 4.392l3.76 1.32a44.122 44.122 0 001.391-4.827zM56.424 115.076a44.273 44.273 0 004.824 1.4l.891-3.885a40.542 40.542 0 01-4.389-1.273l-1.326 3.758zM75.774 113.381l.432 3.961a44.57 44.57 0 004.951-.825l-.877-3.887a40.56 40.56 0 01-4.506.751zM47.407 110.696a44.463 44.463 0 004.384 2.444l1.742-3.584a40.271 40.271 0 01-3.991-2.226l-2.135 3.366zM66.195 117.323c1.656.188 3.34.284 5.005.287l.008-3.984a41.456 41.456 0 01-4.565-.262l-.448 3.959z"/><path d="M140.945 74.463a7.25 7.25 0 00-1.901-3.036c-1.469-1.364-2.945-2.641-4.508-3.991l-.287-.247.216-.262c.954-1.158 1.886-2.287 2.82-3.415 1.498-1.81 2.821-3.777 2.356-5.907-.463-2.127-2.479-3.363-4.588-4.382-1.427-.688-2.85-1.388-4.29-2.096l-.027-.014.35-.777c.717-1.593 1.412-3.14 2.112-4.687.91-2.011.986-3.77.227-5.228-.762-1.462-2.256-2.41-4.439-2.818a382.132 382.132 0 01-5.102-1.008l-.683-.138c.108-.67.222-1.34.336-2.009.266-1.563.541-3.181.738-4.8.193-1.566-.226-3.024-1.182-4.105-.973-1.101-2.401-1.706-4.059-1.706a17.41 17.41 0 00-1.479.087c-.214.02-.428.038-.638.052l-4.779.298c-.055-.54-.107-1.081-.16-1.622-.165-1.696-.336-3.451-.563-5.187-.355-2.718-2.377-4.544-5.028-4.544-.423 0-.855.049-1.289.146-.486.109-.917.268-1.296.407-.135.05-.27.1-.404.145l-5.126 1.736a918.447 918.447 0 01-2.005-5.313c-1.078-2.891-2.736-4.356-4.928-4.356-1.245 0-2.538.481-4.067 1.516-1.312.885-2.625 1.764-3.96 2.657l-.723.483-4.994-6.777c-1.093-1.481-2.337-1.792-3.188-1.792-1.887 0-3.084 1.493-3.305 1.792l-.285.387c-.717.902-2.864 3.468-4.692 5.595l-4.23-3.47c-.409-.343-.873-.731-1.402-1.073-.915-.59-1.929-.901-2.932-.901-1.92 0-3.64 1.124-4.598 3.006a302.604 302.604 0 00-2.564 5.183l-.368.754-.161-.073c-1.938-.88-3.856-1.751-5.777-2.608a5.827 5.827 0 00-2.396-.528c-2.161 0-4.029 1.324-4.757 3.37-.205.573-.313 1.129-.409 1.619l-.038.196a1906.21 1906.21 0 00-1.07 5.373l-.037.184-5.333-.875a21.995 21.995 0 00-1.469-.209c-1.781-.177-3.345.372-4.42 1.49-.956.992-1.451 2.384-1.394 3.916.063 1.718.191 3.443.314 5.112.04.551.081 1.101.119 1.646l-5.003.511c-.396.035-.793.071-1.185.124-2.104.278-3.593 1.091-4.428 2.416-.838 1.331-.926 3.038-.261 5.078.556 1.696 1.14 3.384 1.743 5.125l.199.579-.194.072c-1.822.681-3.706 1.385-5.55 2.148-.909.381-2.167 1.074-2.999 2.214-.754 1.026-1.722 3.186.258 6.104 1.087 1.608 2.167 3.22 3.263 4.854l.196.292-6.694 4.973C2.031 66.472.7 67.46.577 69.162c-.065.902.206 2.245 1.874 3.518.255.192.512.382.769.571.519.382 1.038.763 1.522 1.17 1.238 1.047 2.46 2.11 3.692 3.182l.027.024-.353.427c-1.361 1.651-2.647 3.211-3.913 4.835-.963 1.234-1.36 2.701-1.12 4.131.231 1.379 1.033 2.575 2.256 3.368.575.373 1.171.661 1.697.916l.406.197c1.499.741 2.999 1.479 4.521 2.228-.245.544-.494 1.088-.742 1.632a165.174 165.174 0 00-1.996 4.486c-.654 1.555-.646 3.145.025 4.477.678 1.345 1.966 2.309 3.627 2.715.361.088.727.161 1.094.232l5.528 1.096-.104.622c-.335 1.99-.651 3.87-.925 5.79-.326 2.264.438 3.699 1.137 4.506.968 1.117 2.443 1.732 4.154 1.732.111 0 .224-.003.331-.008.315-.013.63-.045.944-.079.178-.02.356-.039.524-.051l5.006-.32.072.708c.214 2.114.416 4.11.669 6.14.326 2.651 2.369 4.503 4.97 4.502.477 0 .963-.063 1.448-.188a22.763 22.763 0 001.904-.611c.265-.094.53-.188.803-.277l4.014-1.347.157.41c.648 1.687 1.274 3.313 1.89 4.946 1.335 3.525 3.439 4.265 4.969 4.265 1.232 0 2.524-.477 3.952-1.457a314.039 314.039 0 014.365-2.938l.341-.227c1.105 1.537 2.209 3.072 3.286 4.584.197.288 2.012 2.818 4.921 2.818 1.642 0 3.164-.789 4.522-2.343 1.241-1.415 2.478-2.831 3.729-4.264l.537.444c1.434 1.188 2.823 2.34 4.233 3.467 1.3 1.04 2.6 1.566 3.863 1.566 1.354 0 3.268-.592 4.702-3.415a648.083 648.083 0 002.634-5.275l.14-.282 5.521 2.517c1.029.468 2.013.705 2.924.705 1.202 0 4.096-.463 4.99-4.732.042-.19.075-.383.107-.576l1.097-5.452 1.159.199c1.662.286 3.38.583 5.091.829.399.058.789.087 1.159.087 1.963 0 3.148-.807 3.798-1.483.696-.727 1.506-2.072 1.409-4.352-.016-.413-.054-.823-.092-1.234-.025-.268-.051-.535-.067-.808a906.248 906.248 0 01-.262-4.297l.487-.045c2.106-.196 4.096-.383 6.123-.699 1.313-.202 3.02-1.015 3.868-2.367.895-1.416.823-3.301.489-4.49-.562-1.979-1.247-3.944-1.91-5.846l-.144-.413.487-.186c1.641-.628 3.252-1.244 4.865-1.853 2.235-.843 3.567-2.024 4.072-3.611.504-1.587.1-3.32-1.239-5.298a848.443 848.443 0 01-2.9-4.32l-.281-.421 5.069-3.628c.94-.67 3.427-2.45 2.446-5.548zm-4.866 2.162l-8.351 5.977 2.524 3.771c.98 1.467 1.943 2.908 2.915 4.342.678 1.002.767 1.551.719 1.701s-.438.549-1.572.977c-1.62.61-3.237 1.229-4.884 1.859l-4.24 1.618.644 1.899c.267.79.539 1.569.809 2.342.673 1.929 1.309 3.751 1.834 5.606.117.417.074.977.005 1.123-.117.149-.596.427-.993.487-1.903.298-3.831.478-5.871.668a263.8 263.8 0 00-2.51.242l-1.982.204.137 2.321c.12 2.047.235 4.018.36 5.98.02.313.048.625.077.937.032.337.064.673.078 1.016.03.729-.112 1.15-.256 1.3-.179.188-.728.246-1.355.157-1.654-.239-3.345-.53-4.979-.812-.811-.14-1.622-.28-2.434-.414a6.474 6.474 0 00-.589-.063l-2.176-.15-1.796 8.875a14.4 14.4 0 00-.074.415 7.595 7.595 0 01-.074.401c-.301 1.438-.766 1.438-.918 1.438-.215 0-.597-.058-1.199-.332l-6.499-2.961a8.24 8.24 0 00-.694-.265l-2.088-.761-1.835 3.694a608.843 608.843 0 01-2.616 5.239c-.398.785-.783 1.136-.988 1.136-.215 0-.659-.172-1.263-.654-1.392-1.112-2.763-2.249-4.177-3.421-.69-.571-1.391-1.152-2.108-1.742l-1.562-1.283-2.188 2.506c-1.412 1.617-2.802 3.209-4.198 4.802-.52.595-1.013.921-1.39.921-.572 0-1.267-.701-1.506-1.037a1443.286 1443.286 0 00-3.556-4.96l-.579-.805a3.614 3.614 0 00-.429-.502l-1.357-1.463-3.427 2.289a316.093 316.093 0 00-4.421 2.975c-.977.671-1.465.724-1.591.724-.286 0-.718-.633-1.073-1.572-.617-1.639-1.246-3.273-1.898-4.969l-1.585-4.133-7.789 2.612c-.293.098-.584.2-.875.303-.547.194-1.063.377-1.56.506a1.664 1.664 0 01-.404.055c-.182 0-.732 0-.837-.85-.247-1.984-.447-3.958-.659-6.047-.09-.892-.182-1.794-.278-2.712l-.209-1.987-9.012.575c-.232.017-.464.041-.694.065-.223.024-.444.05-.675.06l-.152.004c-.478 0-.845-.108-1.008-.296-.181-.209-.24-.642-.161-1.188.267-1.87.579-3.725.909-5.688.146-.861.292-1.735.438-2.627l.325-1.987-9.493-1.882c-.303-.059-.604-.117-.904-.19-.452-.11-.779-.309-.897-.543-.153-.304-.008-.75.093-.987.615-1.461 1.291-2.94 1.945-4.372.317-.694.635-1.389.951-2.094.131-.294.254-.589.393-.922l.99-2.344-2.838-1.395c-1.763-.866-3.49-1.715-5.216-2.568l-.441-.215c-.456-.221-.887-.429-1.242-.659-.239-.155-.379-.346-.416-.565-.045-.265.061-.577.297-.88 1.231-1.579 2.5-3.117 3.843-4.746.541-.656 1.09-1.322 1.646-2.002l1.281-1.567-3.083-2.673c-1.246-1.084-2.482-2.16-3.741-3.225-.575-.482-1.165-.917-1.736-1.338a118.96 118.96 0 01-.603-.447l9.825-7.298-2.406-3.587c-1.099-1.64-2.182-3.256-3.273-4.871-.628-.925-.446-1.173-.346-1.31.15-.205.566-.547 1.239-.828 1.77-.733 3.536-1.394 5.406-2.092.7-.262 1.401-.523 2.104-.79l1.885-.715-1.517-4.41c-.595-1.719-1.172-3.385-1.72-5.057-.313-.957-.256-1.434-.174-1.564.081-.128.477-.379 1.454-.508.335-.045.671-.074 1.007-.104l9.015-.926-.2-3.592c-.047-.698-.099-1.396-.149-2.095-.121-1.631-.245-3.317-.306-4.961-.016-.393.066-.702.23-.872.206-.214.578-.246.781-.246.076 0 .153.004.234.012.4.039.796.106 1.191.172l9.315 1.531.821-4.138c.362-1.823.713-3.595 1.069-5.367l.043-.217c.073-.378.143-.735.243-1.015.219-.616.817-.759 1.531-.439 1.914.854 3.824 1.722 5.755 2.599l3.842 1.741.891-1.809c.432-.877.85-1.736 1.262-2.582.852-1.747 1.676-3.438 2.531-5.114.14-.273.44-.733.888-.733.201 0 .435.082.675.237.311.2.638.475.984.765l7.387 6.059 1.328-1.512c3.866-4.4 5.646-6.472 6.418-7.632L81.6 16.02l4.026-2.699c1.34-.896 2.659-1.778 3.976-2.668 1.102-.744 1.607-.802 1.736-.802.165 0 .575.438 1.026 1.648.85 2.274 1.711 4.541 2.568 6.797.141.379.344.626.466.774l1.004 1.315 8.329-2.822c.169-.057.337-.118.505-.18.285-.105.555-.204.773-.253a1.71 1.71 0 01.376-.045c.213 0 .779 0 .899.921.219 1.667.386 3.387.548 5.05.079.806.157 1.61.242 2.423.032.292.078.581.133.919l.355 2.271 8.619-.537c.246-.017.493-.038.74-.06.375-.034.751-.069 1.146-.071.411 0 .731.106.902.3.197.223.201.578.169.84-.187 1.525-.453 3.093-.711 4.609-.125.737-.251 1.475-.368 2.21-.075.469-.135.943-.205 1.5l-.293 2.317 4.493.898c1.733.351 3.443.696 5.159 1.02 1.028.192 1.436.499 1.515.65.077.149.096.65-.327 1.586-.702 1.549-1.399 3.099-2.117 4.694l-2.004 4.45 3.643 1.787c1.45.713 2.883 1.416 4.316 2.108 2.061.995 2.313 1.482 2.327 1.502.002.058-.024.608-1.491 2.38-.937 1.13-1.87 2.263-2.827 3.423l-2.796 3.388 1.524 1.333c.615.537 1.227 1.065 1.833 1.589 1.533 1.325 2.982 2.577 4.393 3.888.325.304.626.789.768 1.24.018.055.022.089.026.093-.039.094-.219.319-.917.819z"/><path d="M52.697 95.198l35.118-44.253 2.35 1.865-35.118 44.253zM88.15 94.239c1.555-2.106 2.344-4.901 2.344-8.306 0-3.544-.84-6.382-2.496-8.435-1.738-2.15-4.14-3.24-7.136-3.24-3.237 0-5.699 1.224-7.317 3.639-1.487 2.226-2.241 4.929-2.241 8.036 0 3.6.852 6.458 2.533 8.499 1.755 2.124 4.135 3.201 7.075 3.201 3.143.001 5.578-1.142 7.238-3.394zm-11.999-1.716c-1.227-1.487-1.848-3.705-1.848-6.59 0-2.503.584-4.646 1.734-6.367 1.041-1.553 2.618-2.308 4.824-2.308 2.075 0 3.646.695 4.802 2.126 1.214 1.504 1.83 3.708 1.83 6.549 0 2.749-.592 4.944-1.758 6.525-1.079 1.463-2.657 2.175-4.824 2.175-2.03.001-3.588-.69-4.76-2.11zM61.61 72.06c3.143 0 5.577-1.142 7.234-3.392 1.558-2.106 2.347-4.901 2.347-8.308 0-3.542-.839-6.379-2.496-8.433-1.737-2.149-4.139-3.239-7.136-3.239-3.237 0-5.699 1.224-7.316 3.637C52.755 54.551 52 57.254 52 60.36c0 3.601.853 6.46 2.534 8.499 1.754 2.124 4.135 3.201 7.076 3.201zm-4.874-18.066c1.04-1.552 2.617-2.306 4.823-2.306 2.076 0 3.646.695 4.802 2.124 1.215 1.506 1.83 3.708 1.83 6.548 0 2.75-.592 4.945-1.761 6.526-1.077 1.462-2.654 2.173-4.82 2.173-2.032 0-3.59-.69-4.763-2.109C55.622 65.463 55 63.246 55 60.36c0-2.502.584-4.644 1.736-6.366z"/></g>
</svg>
