<svg xmlns="http://www.w3.org/2000/svg" width="141.732" height="141.731">
  <g fill="#C28F33"><path d="M47.653 93.826l-2.629 2.505a36.708 36.708 0 002.512 2.399l2.381-2.742a33.481 33.481 0 01-2.264-2.162zM43.786 88.91l-3.055 1.966a36.96 36.96 0 002.017 2.829l2.854-2.246a33.494 33.494 0 01-1.816-2.549zM50.263 100.881c.938.672 1.92 1.306 2.92 1.886l1.822-3.142a33.446 33.446 0 01-2.629-1.697l-2.113 2.953zM50.315 41.407a36.63 36.63 0 00-2.732 2.148L49.96 46.3a32.886 32.886 0 012.461-1.934l-2.106-2.959zM35.107 67.663l3.617.345a33.36 33.36 0 01.444-3.097l-3.566-.687a37.61 37.61 0 00-.495 3.439zM39.159 77.362l-3.568.681c.216 1.13.49 2.268.817 3.38l3.484-1.024c-.293-1-.539-2.022-.733-3.037zM69.932 38.318l-.169-3.628a37.07 37.07 0 00-3.459.322l.511 3.598a33.416 33.416 0 013.117-.292zM56.327 37.935a35.97 35.97 0 00-3.09 1.593l1.817 3.146a32.49 32.49 0 012.78-1.434l-1.507-3.305zM47.692 48.461l-2.624-2.512a36.295 36.295 0 00-2.28 2.623l2.851 2.249a33.198 33.198 0 012.053-2.36zM36.425 60.846l3.484 1.027c.293-.995.639-1.989 1.027-2.955l-3.37-1.355a36.622 36.622 0 00-1.141 3.283zM40.765 51.397a36.384 36.384 0 00-1.746 3.006l3.226 1.672a32.596 32.596 0 011.571-2.705l-3.051-1.973zM40.919 83.354l-3.373 1.352a37.117 37.117 0 001.445 3.16L42.22 86.2a32.377 32.377 0 01-1.301-2.846zM87.876 99.64l1.819 3.144a36.459 36.459 0 002.921-1.883l-2.109-2.955a33.992 33.992 0 01-2.631 1.694zM92.967 96.007l2.38 2.744a37.192 37.192 0 002.514-2.398l-2.628-2.507a33.251 33.251 0 01-2.266 2.161zM107.308 78.071l-3.566-.687a32.986 32.986 0 01-.738 3.041l3.485 1.024a37.15 37.15 0 00.819-3.378zM100.137 93.729a37.136 37.136 0 002.021-2.827l-3.053-1.97a33.426 33.426 0 01-1.82 2.549l2.852 2.248zM105.349 84.735l-3.37-1.354c-.388.962-.825 1.92-1.305 2.847l3.228 1.667a36.994 36.994 0 001.447-3.16zM82.194 102.24l1.187 3.433a36.276 36.276 0 003.228-1.295l-1.514-3.302c-.949.435-1.924.826-2.901 1.164zM76.122 103.712l.512 3.596a36.632 36.632 0 003.412-.653l-.853-3.531a33.434 33.434 0 01-3.071.588zM62.89 35.666c-1.117.269-2.24.598-3.337.977l1.187 3.433c.986-.34 1.996-.636 3-.877l-.85-3.533zM62.83 106.646c1.123.272 2.27.493 3.411.658l.518-3.596a33.153 33.153 0 01-3.072-.592l-.857 3.53zM56.27 104.366c1.054.483 2.138.92 3.224 1.297l1.193-3.431a33.145 33.145 0 01-2.904-1.168l-1.513 3.302zM71.455 62.417c-4.823 0-8.746 3.923-8.746 8.745 0 4.823 3.923 8.747 8.746 8.747 4.822 0 8.745-3.924 8.745-8.747 0-4.822-3.923-8.745-8.745-8.745zm0 13.406a4.667 4.667 0 01-4.66-4.661c0-2.568 2.091-4.659 4.66-4.659s4.659 2.091 4.659 4.659a4.666 4.666 0 01-4.659 4.661z"/><path d="M140.202 70.169h-3.926a64.987 64.987 0 00-13.369-38.45l10.652-4.306-14.461-5.873-5.813-14.484-4.529 11.072C98.054 10.58 85.539 6.521 72.389 6.337V2.354a.992.992 0 10-1.986 0v3.984c-13.137.207-25.651 4.29-36.341 11.854L29.506 7.056 23.692 21.54 9.23 27.413l10.742 4.342C11.554 42.747 6.845 56.293 6.63 70.169H2.587a.992.992 0 100 1.986h4.042c.206 13.6 4.639 27.255 12.286 37.917l-9.686 3.914 14.463 5.872 5.813 14.486 4.262-10.419c10.75 7.7 23.355 11.853 36.635 12.06v3.985a.992.992 0 101.986 0v-3.983c13.035-.191 25.984-4.401 36.69-11.925l4.206 10.282 5.813-14.486 14.461-5.872-10.113-4.088c8.21-10.985 12.629-23.972 12.831-37.743h3.925a.992.992 0 10.001-1.986zm-7.897 0h-14.356c-.256-12.095-5.145-23.063-12.965-31.205l14.096-5.698c8.334 10.468 13.004 23.505 13.225 36.903zm-32.316 0c-.549 0-.992.444-.992.993s.443.993.992.993h4.319a31.845 31.845 0 01-.126 2.133l3.617.346a36.79 36.79 0 00.141-2.479h8.022c-.254 11.516-4.896 21.963-12.323 29.737l-4.348-1.757 1.748 4.273c-7.654 6.82-17.67 11.036-28.651 11.266v-8.021c.262-.007.525-.007.785-.018l-.169-3.629c-.203.01-.411.009-.616.015v-4.264c0-.549-.444-.992-.993-.992s-.993.443-.993.992v4.26c-.176-.006-.354-.004-.53-.013l-.172 3.629c.233.01.468.01.702.016v8.021c-10.976-.256-20.982-4.494-28.622-11.335l1.719-4.2-4.265 1.724c-7.408-7.772-12.036-18.206-12.29-29.704h8.02c.022.819.062 1.639.137 2.446l3.617-.34c-.065-.691-.1-1.396-.121-2.106h4.205c.549 0 .992-.444.992-.993s-.443-.993-.992-.993H26.944c.261-11.828 5.145-22.535 12.927-30.371l3.628 1.466-1.438-3.517c7.603-6.697 17.498-10.839 28.342-11.094v15.915a.992.992 0 101.986 0V26.651c10.85.226 20.753 4.346 28.373 11.021l-1.47 3.591 3.711-1.5c7.802 7.839 12.698 18.561 12.96 30.405H99.989zm17.122-46.648l9.573 3.887-22.686 9.17 9.263-22.646 3.85 9.589zm-9.9-1.616l-5.656 13.829c-7.898-6.721-18.06-10.847-29.166-11.068V10.308c12.629.188 24.63 4.185 34.822 11.597zM70.402 10.31v14.358c-11.102.248-21.252 4.4-29.135 11.141l-5.663-13.843c10.178-7.431 22.182-11.445 34.798-11.656zM25.681 23.521l3.849-9.59 9.263 22.646-22.687-9.17 9.575-3.886zm-1.889 9.778l14.101 5.699c-7.803 8.138-12.679 19.093-12.934 31.171H10.601c.212-13.545 4.755-26.27 13.191-36.87zM10.601 72.155h14.358c.248 11.749 4.863 22.438 12.296 30.504l-14.544 5.878c-7.523-10.105-11.899-23.263-12.11-36.382zm15.08 45.723l-9.574-3.886 22.686-9.17-9.263 22.647-3.849-9.591zm9.635 2.263l5.671-13.866c7.922 6.883 18.182 11.132 29.415 11.382v14.358c-12.758-.214-24.848-4.304-35.086-11.874zm37.073 11.876V117.66c11.238-.224 21.508-4.448 29.445-11.312l5.705 13.947c-10.182 7.388-22.626 11.524-35.15 11.722zm44.722-14.139l-3.85 9.592-9.263-22.647 22.686 9.17-9.573 3.885zm2.52-9.523l-14.012-5.662c7.452-8.069 12.081-18.772 12.329-30.538h14.357c-.207 13.254-4.575 25.734-12.674 36.2z"/></g>
</svg>
